<?xml version="1.0" encoding="utf-8" standalone="no"?>
<!DOCTYPE svg PUBLIC "-//W3C//DTD SVG 1.1//EN"
  "http://www.w3.org/Graphics/SVG/1.1/DTD/svg11.dtd">
<!-- Created with matplotlib (https://matplotlib.org/) -->
<svg height="136.8pt" version="1.1" viewBox="0 0 432 136.8" width="432pt" xmlns="http://www.w3.org/2000/svg" xmlns:xlink="http://www.w3.org/1999/xlink">
 <defs>
  <style type="text/css">
*{stroke-linecap:butt;stroke-linejoin:round;}
  </style>
 </defs>
 <g id="figure_1">
  <g id="patch_1">
   <path d="M 0 136.8 
L 432 136.8 
L 432 0 
L 0 0 
z
" style="fill:#ffffff;"/>
  </g>
  <g id="axes_1">
   <g id="patch_2">
    <path d="M 42.05 92.310625 
L 137.793588 92.310625 
L 137.793588 10.8 
L 42.05 10.8 
z
" style="fill:#ffffff;"/>
   </g>
   <g id="patch_3">
    <path clip-path="url(#paf90aa3961)" d="M 42.05 92.310625 
L 44.504964 92.310625 
L 44.504964 86.517404 
L 42.05 86.517404 
z
" style="fill:#4169e1;"/>
   </g>
   <g id="patch_4">
    <path clip-path="url(#paf90aa3961)" d="M 44.504964 92.310625 
L 46.959928 92.310625 
L 46.959928 92.310625 
L 44.504964 92.310625 
z
" style="fill:#4169e1;"/>
   </g>
   <g id="patch_5">
    <path clip-path="url(#paf90aa3961)" d="M 46.959928 92.310625 
L 49.414891 92.310625 
L 49.414891 88.834692 
L 46.959928 88.834692 
z
" style="fill:#4169e1;"/>
   </g>
   <g id="patch_6">
    <path clip-path="url(#paf90aa3961)" d="M 49.414891 92.310625 
L 51.869855 92.310625 
L 51.869855 92.310625 
L 49.414891 92.310625 
z
" style="fill:#4169e1;"/>
   </g>
   <g id="patch_7">
    <path clip-path="url(#paf90aa3961)" d="M 51.869855 92.310625 
L 54.324819 92.310625 
L 54.324819 89.993336 
L 51.869855 89.993336 
z
" style="fill:#4169e1;"/>
   </g>
   <g id="patch_8">
    <path clip-path="url(#paf90aa3961)" d="M 54.324819 92.310625 
L 56.779783 92.310625 
L 56.779783 92.310625 
L 54.324819 92.310625 
z
" style="fill:#4169e1;"/>
   </g>
   <g id="patch_9">
    <path clip-path="url(#paf90aa3961)" d="M 56.779783 92.310625 
L 59.234746 92.310625 
L 59.234746 91.151981 
L 56.779783 91.151981 
z
" style="fill:#4169e1;"/>
   </g>
   <g id="patch_10">
    <path clip-path="url(#paf90aa3961)" d="M 59.234746 92.310625 
L 61.68971 92.310625 
L 61.68971 89.993336 
L 59.234746 89.993336 
z
" style="fill:#4169e1;"/>
   </g>
   <g id="patch_11">
    <path clip-path="url(#paf90aa3961)" d="M 61.68971 92.310625 
L 64.144674 92.310625 
L 64.144674 85.358759 
L 61.68971 85.358759 
z
" style="fill:#4169e1;"/>
   </g>
   <g id="patch_12">
    <path clip-path="url(#paf90aa3961)" d="M 64.144674 92.310625 
L 66.599638 92.310625 
L 66.599638 83.041471 
L 64.144674 83.041471 
z
" style="fill:#4169e1;"/>
   </g>
   <g id="patch_13">
    <path clip-path="url(#paf90aa3961)" d="M 66.599638 92.310625 
L 69.054602 92.310625 
L 69.054602 89.993336 
L 66.599638 89.993336 
z
" style="fill:#4169e1;"/>
   </g>
   <g id="patch_14">
    <path clip-path="url(#paf90aa3961)" d="M 69.054602 92.310625 
L 71.509565 92.310625 
L 71.509565 86.517404 
L 69.054602 86.517404 
z
" style="fill:#4169e1;"/>
   </g>
   <g id="patch_15">
    <path clip-path="url(#paf90aa3961)" d="M 71.509565 92.310625 
L 73.964529 92.310625 
L 73.964529 79.565538 
L 71.509565 79.565538 
z
" style="fill:#4169e1;"/>
   </g>
   <g id="patch_16">
    <path clip-path="url(#paf90aa3961)" d="M 73.964529 92.310625 
L 76.419493 92.310625 
L 76.419493 28.58519 
L 73.964529 28.58519 
z
" style="fill:#4169e1;"/>
   </g>
   <g id="patch_17">
    <path clip-path="url(#paf90aa3961)" d="M 76.419493 92.310625 
L 78.874457 92.310625 
L 78.874457 14.681458 
L 76.419493 14.681458 
z
" style="fill:#4169e1;"/>
   </g>
   <g id="patch_18">
    <path clip-path="url(#paf90aa3961)" d="M 78.874457 92.310625 
L 81.329421 92.310625 
L 81.329421 35.537055 
L 78.874457 35.537055 
z
" style="fill:#4169e1;"/>
   </g>
   <g id="patch_19">
    <path clip-path="url(#paf90aa3961)" d="M 81.329421 92.310625 
L 83.784384 92.310625 
L 83.784384 40.171632 
L 81.329421 40.171632 
z
" style="fill:#4169e1;"/>
   </g>
   <g id="patch_20">
    <path clip-path="url(#paf90aa3961)" d="M 83.784384 92.310625 
L 86.239348 92.310625 
L 86.239348 28.58519 
L 83.784384 28.58519 
z
" style="fill:#4169e1;"/>
   </g>
   <g id="patch_21">
    <path clip-path="url(#paf90aa3961)" d="M 86.239348 92.310625 
L 88.694312 92.310625 
L 88.694312 35.537055 
L 86.239348 35.537055 
z
" style="fill:#4169e1;"/>
   </g>
   <g id="patch_22">
    <path clip-path="url(#paf90aa3961)" d="M 88.694312 92.310625 
L 91.149276 92.310625 
L 91.149276 25.109257 
L 88.694312 25.109257 
z
" style="fill:#4169e1;"/>
   </g>
   <g id="patch_23">
    <path clip-path="url(#paf90aa3961)" d="M 91.149276 92.310625 
L 93.604239 92.310625 
L 93.604239 52.91672 
L 91.149276 52.91672 
z
" style="fill:#4169e1;"/>
   </g>
   <g id="patch_24">
    <path clip-path="url(#paf90aa3961)" d="M 93.604239 92.310625 
L 96.059203 92.310625 
L 96.059203 48.282142 
L 93.604239 48.282142 
z
" style="fill:#4169e1;"/>
   </g>
   <g id="patch_25">
    <path clip-path="url(#paf90aa3961)" d="M 96.059203 92.310625 
L 98.514167 92.310625 
L 98.514167 65.661807 
L 96.059203 65.661807 
z
" style="fill:#4169e1;"/>
   </g>
   <g id="patch_26">
    <path clip-path="url(#paf90aa3961)" d="M 98.514167 92.310625 
L 100.969131 92.310625 
L 100.969131 71.455028 
L 98.514167 71.455028 
z
" style="fill:#4169e1;"/>
   </g>
   <g id="patch_27">
    <path clip-path="url(#paf90aa3961)" d="M 100.969131 92.310625 
L 103.424095 92.310625 
L 103.424095 67.979095 
L 100.969131 67.979095 
z
" style="fill:#4169e1;"/>
   </g>
   <g id="patch_28">
    <path clip-path="url(#paf90aa3961)" d="M 103.424095 92.310625 
L 105.879058 92.310625 
L 105.879058 83.041471 
L 103.424095 83.041471 
z
" style="fill:#4169e1;"/>
   </g>
   <g id="patch_29">
    <path clip-path="url(#paf90aa3961)" d="M 105.879058 92.310625 
L 108.334022 92.310625 
L 108.334022 87.676048 
L 105.879058 87.676048 
z
" style="fill:#4169e1;"/>
   </g>
   <g id="patch_30">
    <path clip-path="url(#paf90aa3961)" d="M 108.334022 92.310625 
L 110.788986 92.310625 
L 110.788986 88.834692 
L 108.334022 88.834692 
z
" style="fill:#4169e1;"/>
   </g>
   <g id="patch_31">
    <path clip-path="url(#paf90aa3961)" d="M 110.788986 92.310625 
L 113.24395 92.310625 
L 113.24395 92.310625 
L 110.788986 92.310625 
z
" style="fill:#4169e1;"/>
   </g>
   <g id="patch_32">
    <path clip-path="url(#paf90aa3961)" d="M 113.24395 92.310625 
L 115.698914 92.310625 
L 115.698914 92.310625 
L 113.24395 92.310625 
z
" style="fill:#4169e1;"/>
   </g>
   <g id="patch_33">
    <path clip-path="url(#paf90aa3961)" d="M 115.698914 92.310625 
L 118.153877 92.310625 
L 118.153877 92.310625 
L 115.698914 92.310625 
z
" style="fill:#4169e1;"/>
   </g>
   <g id="patch_34">
    <path clip-path="url(#paf90aa3961)" d="M 118.153877 92.310625 
L 120.608841 92.310625 
L 120.608841 92.310625 
L 118.153877 92.310625 
z
" style="fill:#4169e1;"/>
   </g>
   <g id="patch_35">
    <path clip-path="url(#paf90aa3961)" d="M 120.608841 92.310625 
L 123.063805 92.310625 
L 123.063805 92.310625 
L 120.608841 92.310625 
z
" style="fill:#4169e1;"/>
   </g>
   <g id="patch_36">
    <path clip-path="url(#paf90aa3961)" d="M 123.063805 92.310625 
L 125.518769 92.310625 
L 125.518769 92.310625 
L 123.063805 92.310625 
z
" style="fill:#4169e1;"/>
   </g>
   <g id="patch_37">
    <path clip-path="url(#paf90aa3961)" d="M 125.518769 92.310625 
L 127.973732 92.310625 
L 127.973732 92.310625 
L 125.518769 92.310625 
z
" style="fill:#4169e1;"/>
   </g>
   <g id="patch_38">
    <path clip-path="url(#paf90aa3961)" d="M 127.973732 92.310625 
L 130.428696 92.310625 
L 130.428696 92.310625 
L 127.973732 92.310625 
z
" style="fill:#4169e1;"/>
   </g>
   <g id="patch_39">
    <path clip-path="url(#paf90aa3961)" d="M 130.428696 92.310625 
L 132.88366 92.310625 
L 132.88366 92.310625 
L 130.428696 92.310625 
z
" style="fill:#4169e1;"/>
   </g>
   <g id="patch_40">
    <path clip-path="url(#paf90aa3961)" d="M 132.88366 92.310625 
L 135.338624 92.310625 
L 135.338624 92.310625 
L 132.88366 92.310625 
z
" style="fill:#4169e1;"/>
   </g>
   <g id="patch_41">
    <path clip-path="url(#paf90aa3961)" d="M 135.338624 92.310625 
L 137.793588 92.310625 
L 137.793588 92.310625 
L 135.338624 92.310625 
z
" style="fill:#4169e1;"/>
   </g>
   <g id="matplotlib.axis_1">
    <g id="xtick_1">
     <g id="line2d_1">
      <defs>
       <path d="M 0 0 
L 0 3.5 
" id="ma8d7a9cad5" style="stroke:#000000;stroke-width:0.8;"/>
      </defs>
      <g>
       <use style="stroke:#000000;stroke-width:0.8;" x="42.05" xlink:href="#ma8d7a9cad5" y="92.310625"/>
      </g>
     </g>
     <g id="text_1">
      <!-- $\mathdefault{10^{0}}$ -->
      <defs>
       <path d="M 37.25 0 
L 28.46875 0 
L 28.46875 56 
Q 25.296875 52.984375 20.140625 49.953125 
Q 14.984375 46.921875 10.890625 45.40625 
L 10.890625 53.90625 
Q 18.265625 57.375 23.78125 62.296875 
Q 29.296875 67.234375 31.59375 71.875 
L 37.25 71.875 
z
" id="ArialMT-49"/>
       <path d="M 4.15625 35.296875 
Q 4.15625 48 6.765625 55.734375 
Q 9.375 63.484375 14.515625 67.671875 
Q 19.671875 71.875 27.484375 71.875 
Q 33.25 71.875 37.59375 69.546875 
Q 41.9375 67.234375 44.765625 62.859375 
Q 47.609375 58.5 49.21875 52.21875 
Q 50.828125 45.953125 50.828125 35.296875 
Q 50.828125 22.703125 48.234375 14.96875 
Q 45.65625 7.234375 40.5 3 
Q 35.359375 -1.21875 27.484375 -1.21875 
Q 17.140625 -1.21875 11.234375 6.203125 
Q 4.15625 15.140625 4.15625 35.296875 
z
M 13.1875 35.296875 
Q 13.1875 17.671875 17.3125 11.828125 
Q 21.4375 6 27.484375 6 
Q 33.546875 6 37.671875 11.859375 
Q 41.796875 17.71875 41.796875 35.296875 
Q 41.796875 52.984375 37.671875 58.78125 
Q 33.546875 64.59375 27.390625 64.59375 
Q 21.34375 64.59375 17.71875 59.46875 
Q 13.1875 52.9375 13.1875 35.296875 
z
" id="ArialMT-48"/>
      </defs>
      <g transform="translate(34.2 109.623125)scale(0.1 -0.1)">
       <use transform="translate(0 0.99375)" xlink:href="#ArialMT-49"/>
       <use transform="translate(55.615234 0.99375)" xlink:href="#ArialMT-48"/>
       <use transform="translate(112.972813 70.6875)scale(0.7)" xlink:href="#ArialMT-48"/>
      </g>
     </g>
    </g>
    <g id="xtick_2">
     <g id="line2d_2">
      <g>
       <use style="stroke:#000000;stroke-width:0.8;" x="89.921794" xlink:href="#ma8d7a9cad5" y="92.310625"/>
      </g>
     </g>
     <g id="text_2">
      <!-- $\mathdefault{10^{2}}$ -->
      <defs>
       <path d="M 50.34375 8.453125 
L 50.34375 0 
L 3.03125 0 
Q 2.9375 3.171875 4.046875 6.109375 
Q 5.859375 10.9375 9.828125 15.625 
Q 13.8125 20.3125 21.34375 26.46875 
Q 33.015625 36.03125 37.109375 41.625 
Q 41.21875 47.21875 41.21875 52.203125 
Q 41.21875 57.421875 37.46875 61 
Q 33.734375 64.59375 27.734375 64.59375 
Q 21.390625 64.59375 17.578125 60.78125 
Q 13.765625 56.984375 13.71875 50.25 
L 4.6875 51.171875 
Q 5.609375 61.28125 11.65625 66.578125 
Q 17.71875 71.875 27.9375 71.875 
Q 38.234375 71.875 44.234375 66.15625 
Q 50.25 60.453125 50.25 52 
Q 50.25 47.703125 48.484375 43.546875 
Q 46.734375 39.40625 42.65625 34.8125 
Q 38.578125 30.21875 29.109375 22.21875 
Q 21.1875 15.578125 18.9375 13.203125 
Q 16.703125 10.84375 15.234375 8.453125 
z
" id="ArialMT-50"/>
      </defs>
      <g transform="translate(82.071794 109.623125)scale(0.1 -0.1)">
       <use transform="translate(0 0.99375)" xlink:href="#ArialMT-49"/>
       <use transform="translate(55.615234 0.99375)" xlink:href="#ArialMT-48"/>
       <use transform="translate(112.972813 70.6875)scale(0.7)" xlink:href="#ArialMT-50"/>
      </g>
     </g>
    </g>
    <g id="xtick_3">
     <g id="line2d_3">
      <g>
       <use style="stroke:#000000;stroke-width:0.8;" x="137.793588" xlink:href="#ma8d7a9cad5" y="92.310625"/>
      </g>
     </g>
     <g id="text_3">
      <!-- $\mathdefault{10^{4}}$ -->
      <defs>
       <path d="M 32.328125 0 
L 32.328125 17.140625 
L 1.265625 17.140625 
L 1.265625 25.203125 
L 33.9375 71.578125 
L 41.109375 71.578125 
L 41.109375 25.203125 
L 50.78125 25.203125 
L 50.78125 17.140625 
L 41.109375 17.140625 
L 41.109375 0 
z
M 32.328125 25.203125 
L 32.328125 57.46875 
L 9.90625 25.203125 
z
" id="ArialMT-52"/>
      </defs>
      <g transform="translate(129.943588 109.523125)scale(0.1 -0.1)">
       <use transform="translate(0 0.201563)" xlink:href="#ArialMT-49"/>
       <use transform="translate(55.615234 0.201563)" xlink:href="#ArialMT-48"/>
       <use transform="translate(112.972813 69.895313)scale(0.7)" xlink:href="#ArialMT-52"/>
      </g>
     </g>
    </g>
    <g id="text_4">
     <!-- 5UTR lengths -->
     <defs>
      <path d="M 4.15625 18.75 
L 13.375 19.53125 
Q 14.40625 12.796875 18.140625 9.390625 
Q 21.875 6 27.15625 6 
Q 33.5 6 37.890625 10.78125 
Q 42.28125 15.578125 42.28125 23.484375 
Q 42.28125 31 38.0625 35.34375 
Q 33.84375 39.703125 27 39.703125 
Q 22.75 39.703125 19.328125 37.765625 
Q 15.921875 35.84375 13.96875 32.765625 
L 5.71875 33.84375 
L 12.640625 70.609375 
L 48.25 70.609375 
L 48.25 62.203125 
L 19.671875 62.203125 
L 15.828125 42.96875 
Q 22.265625 47.46875 29.34375 47.46875 
Q 38.71875 47.46875 45.15625 40.96875 
Q 51.609375 34.46875 51.609375 24.265625 
Q 51.609375 14.546875 45.953125 7.46875 
Q 39.0625 -1.21875 27.15625 -1.21875 
Q 17.390625 -1.21875 11.203125 4.25 
Q 5.03125 9.71875 4.15625 18.75 
z
" id="ArialMT-53"/>
      <path d="M 54.6875 71.578125 
L 64.15625 71.578125 
L 64.15625 30.21875 
Q 64.15625 19.4375 61.71875 13.078125 
Q 59.28125 6.734375 52.90625 2.75 
Q 46.53125 -1.21875 36.1875 -1.21875 
Q 26.125 -1.21875 19.71875 2.25 
Q 13.328125 5.71875 10.59375 12.28125 
Q 7.859375 18.84375 7.859375 30.21875 
L 7.859375 71.578125 
L 17.328125 71.578125 
L 17.328125 30.28125 
Q 17.328125 20.953125 19.0625 16.53125 
Q 20.796875 12.109375 25.015625 9.71875 
Q 29.25 7.328125 35.359375 7.328125 
Q 45.796875 7.328125 50.234375 12.0625 
Q 54.6875 16.796875 54.6875 30.28125 
z
" id="ArialMT-85"/>
      <path d="M 25.921875 0 
L 25.921875 63.140625 
L 2.34375 63.140625 
L 2.34375 71.578125 
L 59.078125 71.578125 
L 59.078125 63.140625 
L 35.40625 63.140625 
L 35.40625 0 
z
" id="ArialMT-84"/>
      <path d="M 7.859375 0 
L 7.859375 71.578125 
L 39.59375 71.578125 
Q 49.171875 71.578125 54.140625 69.640625 
Q 59.125 67.71875 62.109375 62.828125 
Q 65.09375 57.953125 65.09375 52.046875 
Q 65.09375 44.4375 60.15625 39.203125 
Q 55.21875 33.984375 44.921875 32.5625 
Q 48.6875 30.765625 50.640625 29 
Q 54.78125 25.203125 58.5 19.484375 
L 70.953125 0 
L 59.03125 0 
L 49.5625 14.890625 
Q 45.40625 21.34375 42.71875 24.75 
Q 40.046875 28.171875 37.921875 29.53125 
Q 35.796875 30.90625 33.59375 31.453125 
Q 31.984375 31.78125 28.328125 31.78125 
L 17.328125 31.78125 
L 17.328125 0 
z
M 17.328125 39.984375 
L 37.703125 39.984375 
Q 44.1875 39.984375 47.84375 41.328125 
Q 51.515625 42.671875 53.421875 45.625 
Q 55.328125 48.578125 55.328125 52.046875 
Q 55.328125 57.125 51.640625 60.390625 
Q 47.953125 63.671875 39.984375 63.671875 
L 17.328125 63.671875 
z
" id="ArialMT-82"/>
      <path id="ArialMT-32"/>
      <path d="M 6.390625 0 
L 6.390625 71.578125 
L 15.1875 71.578125 
L 15.1875 0 
z
" id="ArialMT-108"/>
      <path d="M 42.09375 16.703125 
L 51.171875 15.578125 
Q 49.03125 7.625 43.21875 3.21875 
Q 37.40625 -1.171875 28.375 -1.171875 
Q 17 -1.171875 10.328125 5.828125 
Q 3.65625 12.84375 3.65625 25.484375 
Q 3.65625 38.578125 10.390625 45.796875 
Q 17.140625 53.03125 27.875 53.03125 
Q 38.28125 53.03125 44.875 45.953125 
Q 51.46875 38.875 51.46875 26.03125 
Q 51.46875 25.25 51.421875 23.6875 
L 12.75 23.6875 
Q 13.234375 15.140625 17.578125 10.59375 
Q 21.921875 6.0625 28.421875 6.0625 
Q 33.25 6.0625 36.671875 8.59375 
Q 40.09375 11.140625 42.09375 16.703125 
z
M 13.234375 30.90625 
L 42.1875 30.90625 
Q 41.609375 37.453125 38.875 40.71875 
Q 34.671875 45.796875 27.984375 45.796875 
Q 21.921875 45.796875 17.796875 41.75 
Q 13.671875 37.703125 13.234375 30.90625 
z
" id="ArialMT-101"/>
      <path d="M 6.59375 0 
L 6.59375 51.859375 
L 14.5 51.859375 
L 14.5 44.484375 
Q 20.21875 53.03125 31 53.03125 
Q 35.6875 53.03125 39.625 51.34375 
Q 43.5625 49.65625 45.515625 46.921875 
Q 47.46875 44.1875 48.25 40.4375 
Q 48.734375 37.984375 48.734375 31.890625 
L 48.734375 0 
L 39.9375 0 
L 39.9375 31.546875 
Q 39.9375 36.921875 38.90625 39.578125 
Q 37.890625 42.234375 35.28125 43.8125 
Q 32.671875 45.40625 29.15625 45.40625 
Q 23.53125 45.40625 19.453125 41.84375 
Q 15.375 38.28125 15.375 28.328125 
L 15.375 0 
z
" id="ArialMT-110"/>
      <path d="M 4.984375 -4.296875 
L 13.53125 -5.5625 
Q 14.0625 -9.515625 16.5 -11.328125 
Q 19.78125 -13.765625 25.4375 -13.765625 
Q 31.546875 -13.765625 34.859375 -11.328125 
Q 38.1875 -8.890625 39.359375 -4.5 
Q 40.046875 -1.8125 39.984375 6.78125 
Q 34.234375 0 25.640625 0 
Q 14.9375 0 9.078125 7.71875 
Q 3.21875 15.4375 3.21875 26.21875 
Q 3.21875 33.640625 5.90625 39.90625 
Q 8.59375 46.1875 13.6875 49.609375 
Q 18.796875 53.03125 25.6875 53.03125 
Q 34.859375 53.03125 40.828125 45.609375 
L 40.828125 51.859375 
L 48.921875 51.859375 
L 48.921875 7.03125 
Q 48.921875 -5.078125 46.453125 -10.125 
Q 44 -15.1875 38.640625 -18.109375 
Q 33.296875 -21.046875 25.484375 -21.046875 
Q 16.21875 -21.046875 10.5 -16.875 
Q 4.78125 -12.703125 4.984375 -4.296875 
z
M 12.25 26.859375 
Q 12.25 16.65625 16.296875 11.96875 
Q 20.359375 7.28125 26.46875 7.28125 
Q 32.515625 7.28125 36.609375 11.9375 
Q 40.71875 16.609375 40.71875 26.5625 
Q 40.71875 36.078125 36.5 40.90625 
Q 32.28125 45.75 26.3125 45.75 
Q 20.453125 45.75 16.34375 40.984375 
Q 12.25 36.234375 12.25 26.859375 
z
" id="ArialMT-103"/>
      <path d="M 25.78125 7.859375 
L 27.046875 0.09375 
Q 23.34375 -0.6875 20.40625 -0.6875 
Q 15.625 -0.6875 12.984375 0.828125 
Q 10.359375 2.34375 9.28125 4.8125 
Q 8.203125 7.28125 8.203125 15.1875 
L 8.203125 45.015625 
L 1.765625 45.015625 
L 1.765625 51.859375 
L 8.203125 51.859375 
L 8.203125 64.703125 
L 16.9375 69.96875 
L 16.9375 51.859375 
L 25.78125 51.859375 
L 25.78125 45.015625 
L 16.9375 45.015625 
L 16.9375 14.703125 
Q 16.9375 10.9375 17.40625 9.859375 
Q 17.875 8.796875 18.921875 8.15625 
Q 19.96875 7.515625 21.921875 7.515625 
Q 23.390625 7.515625 25.78125 7.859375 
z
" id="ArialMT-116"/>
      <path d="M 6.59375 0 
L 6.59375 71.578125 
L 15.375 71.578125 
L 15.375 45.90625 
Q 21.53125 53.03125 30.90625 53.03125 
Q 36.671875 53.03125 40.921875 50.75 
Q 45.171875 48.484375 47 44.484375 
Q 48.828125 40.484375 48.828125 32.859375 
L 48.828125 0 
L 40.046875 0 
L 40.046875 32.859375 
Q 40.046875 39.453125 37.1875 42.453125 
Q 34.328125 45.453125 29.109375 45.453125 
Q 25.203125 45.453125 21.75 43.421875 
Q 18.3125 41.40625 16.84375 37.9375 
Q 15.375 34.46875 15.375 28.375 
L 15.375 0 
z
" id="ArialMT-104"/>
      <path d="M 3.078125 15.484375 
L 11.765625 16.84375 
Q 12.5 11.625 15.84375 8.84375 
Q 19.1875 6.0625 25.203125 6.0625 
Q 31.25 6.0625 34.171875 8.515625 
Q 37.109375 10.984375 37.109375 14.3125 
Q 37.109375 17.28125 34.515625 19 
Q 32.71875 20.171875 25.53125 21.96875 
Q 15.875 24.421875 12.140625 26.203125 
Q 8.40625 27.984375 6.46875 31.125 
Q 4.546875 34.28125 4.546875 38.09375 
Q 4.546875 41.546875 6.125 44.5 
Q 7.71875 47.46875 10.453125 49.421875 
Q 12.5 50.921875 16.03125 51.96875 
Q 19.578125 53.03125 23.640625 53.03125 
Q 29.734375 53.03125 34.34375 51.265625 
Q 38.96875 49.515625 41.15625 46.5 
Q 43.359375 43.5 44.1875 38.484375 
L 35.59375 37.3125 
Q 35.015625 41.3125 32.203125 43.546875 
Q 29.390625 45.796875 24.265625 45.796875 
Q 18.21875 45.796875 15.625 43.796875 
Q 13.03125 41.796875 13.03125 39.109375 
Q 13.03125 37.40625 14.109375 36.03125 
Q 15.1875 34.625 17.484375 33.6875 
Q 18.796875 33.203125 25.25 31.453125 
Q 34.578125 28.953125 38.25 27.359375 
Q 41.9375 25.78125 44.03125 22.75 
Q 46.140625 19.734375 46.140625 15.234375 
Q 46.140625 10.84375 43.578125 6.953125 
Q 41.015625 3.078125 36.171875 0.953125 
Q 31.34375 -1.171875 25.25 -1.171875 
Q 15.140625 -1.171875 9.84375 3.03125 
Q 4.546875 7.234375 3.078125 15.484375 
z
" id="ArialMT-115"/>
     </defs>
     <g transform="translate(59.354606 122.768437)scale(0.1 -0.1)">
      <use xlink:href="#ArialMT-53"/>
      <use x="55.615234" xlink:href="#ArialMT-85"/>
      <use x="127.832031" xlink:href="#ArialMT-84"/>
      <use x="188.916016" xlink:href="#ArialMT-82"/>
      <use x="261.132812" xlink:href="#ArialMT-32"/>
      <use x="288.916016" xlink:href="#ArialMT-108"/>
      <use x="311.132812" xlink:href="#ArialMT-101"/>
      <use x="366.748047" xlink:href="#ArialMT-110"/>
      <use x="422.363281" xlink:href="#ArialMT-103"/>
      <use x="477.978516" xlink:href="#ArialMT-116"/>
      <use x="505.761719" xlink:href="#ArialMT-104"/>
      <use x="561.376953" xlink:href="#ArialMT-115"/>
     </g>
    </g>
   </g>
   <g id="matplotlib.axis_2">
    <g id="ytick_1">
     <g id="line2d_4">
      <defs>
       <path d="M 0 0 
L -3.5 0 
" id="mdec3e5b98d" style="stroke:#000000;stroke-width:0.8;"/>
      </defs>
      <g>
       <use style="stroke:#000000;stroke-width:0.8;" x="42.05" xlink:href="#mdec3e5b98d" y="92.310625"/>
      </g>
     </g>
     <g id="text_5">
      <!-- 0 -->
      <g transform="translate(29.489062 95.889531)scale(0.1 -0.1)">
       <use xlink:href="#ArialMT-48"/>
      </g>
     </g>
    </g>
    <g id="ytick_2">
     <g id="line2d_5">
      <g>
       <use style="stroke:#000000;stroke-width:0.8;" x="42.05" xlink:href="#mdec3e5b98d" y="69.137739"/>
      </g>
     </g>
     <g id="text_6">
      <!-- 20 -->
      <g transform="translate(23.928125 72.716646)scale(0.1 -0.1)">
       <use xlink:href="#ArialMT-50"/>
       <use x="55.615234" xlink:href="#ArialMT-48"/>
      </g>
     </g>
    </g>
    <g id="ytick_3">
     <g id="line2d_6">
      <g>
       <use style="stroke:#000000;stroke-width:0.8;" x="42.05" xlink:href="#mdec3e5b98d" y="45.964854"/>
      </g>
     </g>
     <g id="text_7">
      <!-- 40 -->
      <g transform="translate(23.928125 49.54376)scale(0.1 -0.1)">
       <use xlink:href="#ArialMT-52"/>
       <use x="55.615234" xlink:href="#ArialMT-48"/>
      </g>
     </g>
    </g>
    <g id="ytick_4">
     <g id="line2d_7">
      <g>
       <use style="stroke:#000000;stroke-width:0.8;" x="42.05" xlink:href="#mdec3e5b98d" y="22.791968"/>
      </g>
     </g>
     <g id="text_8">
      <!-- 60 -->
      <defs>
       <path d="M 49.75 54.046875 
L 41.015625 53.375 
Q 39.84375 58.546875 37.703125 60.890625 
Q 34.125 64.65625 28.90625 64.65625 
Q 24.703125 64.65625 21.53125 62.3125 
Q 17.390625 59.28125 14.984375 53.46875 
Q 12.59375 47.65625 12.5 36.921875 
Q 15.671875 41.75 20.265625 44.09375 
Q 24.859375 46.4375 29.890625 46.4375 
Q 38.671875 46.4375 44.84375 39.96875 
Q 51.03125 33.5 51.03125 23.25 
Q 51.03125 16.5 48.125 10.71875 
Q 45.21875 4.9375 40.140625 1.859375 
Q 35.0625 -1.21875 28.609375 -1.21875 
Q 17.625 -1.21875 10.6875 6.859375 
Q 3.765625 14.9375 3.765625 33.5 
Q 3.765625 54.25 11.421875 63.671875 
Q 18.109375 71.875 29.4375 71.875 
Q 37.890625 71.875 43.28125 67.140625 
Q 48.6875 62.40625 49.75 54.046875 
z
M 13.875 23.1875 
Q 13.875 18.65625 15.796875 14.5 
Q 17.71875 10.359375 21.1875 8.171875 
Q 24.65625 6 28.46875 6 
Q 34.03125 6 38.03125 10.484375 
Q 42.046875 14.984375 42.046875 22.703125 
Q 42.046875 30.125 38.078125 34.390625 
Q 34.125 38.671875 28.125 38.671875 
Q 22.171875 38.671875 18.015625 34.390625 
Q 13.875 30.125 13.875 23.1875 
z
" id="ArialMT-54"/>
      </defs>
      <g transform="translate(23.928125 26.370875)scale(0.1 -0.1)">
       <use xlink:href="#ArialMT-54"/>
       <use x="55.615234" xlink:href="#ArialMT-48"/>
      </g>
     </g>
    </g>
    <g id="text_9">
     <!-- Counts -->
     <defs>
      <path d="M 58.796875 25.09375 
L 68.265625 22.703125 
Q 65.28125 11.03125 57.546875 4.90625 
Q 49.8125 -1.21875 38.625 -1.21875 
Q 27.046875 -1.21875 19.796875 3.484375 
Q 12.546875 8.203125 8.765625 17.140625 
Q 4.984375 26.078125 4.984375 36.328125 
Q 4.984375 47.515625 9.25 55.828125 
Q 13.53125 64.15625 21.40625 68.46875 
Q 29.296875 72.796875 38.765625 72.796875 
Q 49.515625 72.796875 56.828125 67.328125 
Q 64.15625 61.859375 67.046875 51.953125 
L 57.71875 49.75 
Q 55.21875 57.5625 50.484375 61.125 
Q 45.75 64.703125 38.578125 64.703125 
Q 30.328125 64.703125 24.78125 60.734375 
Q 19.234375 56.78125 16.984375 50.109375 
Q 14.75 43.453125 14.75 36.375 
Q 14.75 27.25 17.40625 20.4375 
Q 20.0625 13.625 25.671875 10.25 
Q 31.296875 6.890625 37.84375 6.890625 
Q 45.796875 6.890625 51.3125 11.46875 
Q 56.84375 16.0625 58.796875 25.09375 
z
" id="ArialMT-67"/>
      <path d="M 3.328125 25.921875 
Q 3.328125 40.328125 11.328125 47.265625 
Q 18.015625 53.03125 27.640625 53.03125 
Q 38.328125 53.03125 45.109375 46.015625 
Q 51.90625 39.015625 51.90625 26.65625 
Q 51.90625 16.65625 48.90625 10.90625 
Q 45.90625 5.171875 40.15625 2 
Q 34.421875 -1.171875 27.640625 -1.171875 
Q 16.75 -1.171875 10.03125 5.8125 
Q 3.328125 12.796875 3.328125 25.921875 
z
M 12.359375 25.921875 
Q 12.359375 15.96875 16.703125 11.015625 
Q 21.046875 6.0625 27.640625 6.0625 
Q 34.1875 6.0625 38.53125 11.03125 
Q 42.875 16.015625 42.875 26.21875 
Q 42.875 35.84375 38.5 40.796875 
Q 34.125 45.75 27.640625 45.75 
Q 21.046875 45.75 16.703125 40.8125 
Q 12.359375 35.890625 12.359375 25.921875 
z
" id="ArialMT-111"/>
      <path d="M 40.578125 0 
L 40.578125 7.625 
Q 34.515625 -1.171875 24.125 -1.171875 
Q 19.53125 -1.171875 15.546875 0.578125 
Q 11.578125 2.34375 9.640625 5 
Q 7.71875 7.671875 6.9375 11.53125 
Q 6.390625 14.109375 6.390625 19.734375 
L 6.390625 51.859375 
L 15.1875 51.859375 
L 15.1875 23.09375 
Q 15.1875 16.21875 15.71875 13.8125 
Q 16.546875 10.359375 19.234375 8.375 
Q 21.921875 6.390625 25.875 6.390625 
Q 29.828125 6.390625 33.296875 8.421875 
Q 36.765625 10.453125 38.203125 13.9375 
Q 39.65625 17.4375 39.65625 24.078125 
L 39.65625 51.859375 
L 48.4375 51.859375 
L 48.4375 0 
z
" id="ArialMT-117"/>
     </defs>
     <g transform="translate(17.940625 67.396719)rotate(-90)scale(0.1 -0.1)">
      <use xlink:href="#ArialMT-67"/>
      <use x="72.216797" xlink:href="#ArialMT-111"/>
      <use x="127.832031" xlink:href="#ArialMT-117"/>
      <use x="183.447266" xlink:href="#ArialMT-110"/>
      <use x="239.0625" xlink:href="#ArialMT-116"/>
      <use x="266.845703" xlink:href="#ArialMT-115"/>
     </g>
    </g>
   </g>
   <g id="line2d_8">
    <path clip-path="url(#paf90aa3961)" d="M 101.342119 92.310625 
L 101.342119 10.8 
" style="fill:none;stroke:#ff0000;stroke-linecap:square;stroke-width:1.5;"/>
   </g>
   <g id="patch_42">
    <path d="M 42.05 92.310625 
L 42.05 10.8 
" style="fill:none;stroke:#000000;stroke-linecap:square;stroke-linejoin:miter;stroke-width:0.8;"/>
   </g>
   <g id="patch_43">
    <path d="M 137.793588 92.310625 
L 137.793588 10.8 
" style="fill:none;stroke:#000000;stroke-linecap:square;stroke-linejoin:miter;stroke-width:0.8;"/>
   </g>
   <g id="patch_44">
    <path d="M 42.05 92.310625 
L 137.793588 92.310625 
" style="fill:none;stroke:#000000;stroke-linecap:square;stroke-linejoin:miter;stroke-width:0.8;"/>
   </g>
   <g id="patch_45">
    <path d="M 42.05 10.8 
L 137.793588 10.8 
" style="fill:none;stroke:#000000;stroke-linecap:square;stroke-linejoin:miter;stroke-width:0.8;"/>
   </g>
   <g id="text_10">
    <!-- 95.5% -->
    <defs>
     <path d="M 5.46875 16.546875 
L 13.921875 17.328125 
Q 14.984375 11.375 18.015625 8.6875 
Q 21.046875 6 25.78125 6 
Q 29.828125 6 32.875 7.859375 
Q 35.9375 9.71875 37.890625 12.8125 
Q 39.84375 15.921875 41.15625 21.1875 
Q 42.484375 26.46875 42.484375 31.9375 
Q 42.484375 32.515625 42.4375 33.6875 
Q 39.796875 29.5 35.234375 26.875 
Q 30.671875 24.265625 25.34375 24.265625 
Q 16.453125 24.265625 10.296875 30.703125 
Q 4.15625 37.15625 4.15625 47.703125 
Q 4.15625 58.59375 10.578125 65.234375 
Q 17 71.875 26.65625 71.875 
Q 33.640625 71.875 39.421875 68.109375 
Q 45.21875 64.359375 48.21875 57.390625 
Q 51.21875 50.4375 51.21875 37.25 
Q 51.21875 23.53125 48.234375 15.40625 
Q 45.265625 7.28125 39.375 3.03125 
Q 33.5 -1.21875 25.59375 -1.21875 
Q 17.1875 -1.21875 11.859375 3.4375 
Q 6.546875 8.109375 5.46875 16.546875 
z
M 41.453125 48.140625 
Q 41.453125 55.71875 37.421875 60.15625 
Q 33.40625 64.59375 27.734375 64.59375 
Q 21.875 64.59375 17.53125 59.8125 
Q 13.1875 55.03125 13.1875 47.40625 
Q 13.1875 40.578125 17.3125 36.296875 
Q 21.4375 32.03125 27.484375 32.03125 
Q 33.59375 32.03125 37.515625 36.296875 
Q 41.453125 40.578125 41.453125 48.140625 
z
" id="ArialMT-57"/>
     <path d="M 9.078125 0 
L 9.078125 10.015625 
L 19.09375 10.015625 
L 19.09375 0 
z
" id="ArialMT-46"/>
     <path d="M 5.8125 54.390625 
Q 5.8125 62.0625 9.671875 67.421875 
Q 13.53125 72.796875 20.84375 72.796875 
Q 27.59375 72.796875 32 67.984375 
Q 36.421875 63.1875 36.421875 53.859375 
Q 36.421875 44.78125 31.953125 39.875 
Q 27.484375 34.96875 20.953125 34.96875 
Q 14.453125 34.96875 10.125 39.796875 
Q 5.8125 44.625 5.8125 54.390625 
z
M 21.09375 66.75 
Q 17.828125 66.75 15.65625 63.90625 
Q 13.484375 61.078125 13.484375 53.515625 
Q 13.484375 46.625 15.671875 43.8125 
Q 17.875 41.015625 21.09375 41.015625 
Q 24.421875 41.015625 26.59375 43.84375 
Q 28.765625 46.6875 28.765625 54.203125 
Q 28.765625 61.140625 26.5625 63.9375 
Q 24.359375 66.75 21.09375 66.75 
z
M 21.140625 -2.640625 
L 60.296875 72.796875 
L 67.4375 72.796875 
L 28.421875 -2.640625 
z
M 52.09375 16.796875 
Q 52.09375 24.515625 55.953125 29.859375 
Q 59.8125 35.203125 67.1875 35.203125 
Q 73.921875 35.203125 78.34375 30.390625 
Q 82.765625 25.59375 82.765625 16.265625 
Q 82.765625 7.171875 78.296875 2.265625 
Q 73.828125 -2.640625 67.234375 -2.640625 
Q 60.75 -2.640625 56.421875 2.21875 
Q 52.09375 7.078125 52.09375 16.796875 
z
M 67.4375 29.15625 
Q 64.109375 29.15625 61.9375 26.3125 
Q 59.765625 23.484375 59.765625 15.921875 
Q 59.765625 9.078125 61.953125 6.25 
Q 64.15625 3.421875 67.390625 3.421875 
Q 70.75 3.421875 72.921875 6.25 
Q 75.09375 9.078125 75.09375 16.609375 
Q 75.09375 23.53125 72.890625 26.34375 
Q 70.703125 29.15625 67.4375 29.15625 
z
" id="ArialMT-37"/>
    </defs>
    <g style="fill:#ff0000;" transform="translate(43.040771 22.791968)scale(0.1 -0.1)">
     <use xlink:href="#ArialMT-57"/>
     <use x="55.615234" xlink:href="#ArialMT-53"/>
     <use x="111.230469" xlink:href="#ArialMT-46"/>
     <use x="139.013672" xlink:href="#ArialMT-53"/>
     <use x="194.628906" xlink:href="#ArialMT-37"/>
    </g>
   </g>
  </g>
  <g id="axes_2">
   <g id="patch_46">
    <path d="M 179.926667 92.310625 
L 275.670254 92.310625 
L 275.670254 10.8 
L 179.926667 10.8 
z
" style="fill:#ffffff;"/>
   </g>
   <g id="patch_47">
    <path clip-path="url(#p05e7821de3)" d="M 179.926667 92.310625 
L 182.38163 92.310625 
L 182.38163 86.100292 
L 179.926667 86.100292 
z
" style="fill:#4169e1;"/>
   </g>
   <g id="patch_48">
    <path clip-path="url(#p05e7821de3)" d="M 182.38163 92.310625 
L 184.836594 92.310625 
L 184.836594 86.987482 
L 182.38163 86.987482 
z
" style="fill:#4169e1;"/>
   </g>
   <g id="patch_49">
    <path clip-path="url(#p05e7821de3)" d="M 184.836594 92.310625 
L 187.291558 92.310625 
L 187.291558 86.987482 
L 184.836594 86.987482 
z
" style="fill:#4169e1;"/>
   </g>
   <g id="patch_50">
    <path clip-path="url(#p05e7821de3)" d="M 187.291558 92.310625 
L 189.746522 92.310625 
L 189.746522 85.213101 
L 187.291558 85.213101 
z
" style="fill:#4169e1;"/>
   </g>
   <g id="patch_51">
    <path clip-path="url(#p05e7821de3)" d="M 189.746522 92.310625 
L 192.201486 92.310625 
L 192.201486 82.773327 
L 189.746522 82.773327 
z
" style="fill:#4169e1;"/>
   </g>
   <g id="patch_52">
    <path clip-path="url(#p05e7821de3)" d="M 192.201486 92.310625 
L 194.656449 92.310625 
L 194.656449 81.220744 
L 192.201486 81.220744 
z
" style="fill:#4169e1;"/>
   </g>
   <g id="patch_53">
    <path clip-path="url(#p05e7821de3)" d="M 194.656449 92.310625 
L 197.111413 92.310625 
L 197.111413 74.566815 
L 194.656449 74.566815 
z
" style="fill:#4169e1;"/>
   </g>
   <g id="patch_54">
    <path clip-path="url(#p05e7821de3)" d="M 197.111413 92.310625 
L 199.566377 92.310625 
L 199.566377 74.345018 
L 197.111413 74.345018 
z
" style="fill:#4169e1;"/>
   </g>
   <g id="patch_55">
    <path clip-path="url(#p05e7821de3)" d="M 199.566377 92.310625 
L 202.021341 92.310625 
L 202.021341 69.909065 
L 199.566377 69.909065 
z
" style="fill:#4169e1;"/>
   </g>
   <g id="patch_56">
    <path clip-path="url(#p05e7821de3)" d="M 202.021341 92.310625 
L 204.476305 92.310625 
L 204.476305 68.356482 
L 202.021341 68.356482 
z
" style="fill:#4169e1;"/>
   </g>
   <g id="patch_57">
    <path clip-path="url(#p05e7821de3)" d="M 204.476305 92.310625 
L 206.931268 92.310625 
L 206.931268 59.26278 
L 204.476305 59.26278 
z
" style="fill:#4169e1;"/>
   </g>
   <g id="patch_58">
    <path clip-path="url(#p05e7821de3)" d="M 206.931268 92.310625 
L 209.386232 92.310625 
L 209.386232 64.142327 
L 206.931268 64.142327 
z
" style="fill:#4169e1;"/>
   </g>
   <g id="patch_59">
    <path clip-path="url(#p05e7821de3)" d="M 209.386232 92.310625 
L 211.841196 92.310625 
L 211.841196 59.26278 
L 209.386232 59.26278 
z
" style="fill:#4169e1;"/>
   </g>
   <g id="patch_60">
    <path clip-path="url(#p05e7821de3)" d="M 211.841196 92.310625 
L 214.29616 92.310625 
L 214.29616 49.281887 
L 211.841196 49.281887 
z
" style="fill:#4169e1;"/>
   </g>
   <g id="patch_61">
    <path clip-path="url(#p05e7821de3)" d="M 214.29616 92.310625 
L 216.751123 92.310625 
L 216.751123 49.94728 
L 214.29616 49.94728 
z
" style="fill:#4169e1;"/>
   </g>
   <g id="patch_62">
    <path clip-path="url(#p05e7821de3)" d="M 216.751123 92.310625 
L 219.206087 92.310625 
L 219.206087 39.966387 
L 216.751123 39.966387 
z
" style="fill:#4169e1;"/>
   </g>
   <g id="patch_63">
    <path clip-path="url(#p05e7821de3)" d="M 219.206087 92.310625 
L 221.661051 92.310625 
L 221.661051 29.763696 
L 219.206087 29.763696 
z
" style="fill:#4169e1;"/>
   </g>
   <g id="patch_64">
    <path clip-path="url(#p05e7821de3)" d="M 221.661051 92.310625 
L 224.116015 92.310625 
L 224.116015 24.218756 
L 221.661051 24.218756 
z
" style="fill:#4169e1;"/>
   </g>
   <g id="patch_65">
    <path clip-path="url(#p05e7821de3)" d="M 224.116015 92.310625 
L 226.570979 92.310625 
L 226.570979 14.903256 
L 224.116015 14.903256 
z
" style="fill:#4169e1;"/>
   </g>
   <g id="patch_66">
    <path clip-path="url(#p05e7821de3)" d="M 226.570979 92.310625 
L 229.025942 92.310625 
L 229.025942 14.681458 
L 226.570979 14.681458 
z
" style="fill:#4169e1;"/>
   </g>
   <g id="patch_67">
    <path clip-path="url(#p05e7821de3)" d="M 229.025942 92.310625 
L 231.480906 92.310625 
L 231.480906 25.771339 
L 229.025942 25.771339 
z
" style="fill:#4169e1;"/>
   </g>
   <g id="patch_68">
    <path clip-path="url(#p05e7821de3)" d="M 231.480906 92.310625 
L 233.93587 92.310625 
L 233.93587 25.993137 
L 231.480906 25.993137 
z
" style="fill:#4169e1;"/>
   </g>
   <g id="patch_69">
    <path clip-path="url(#p05e7821de3)" d="M 233.93587 92.310625 
L 236.390834 92.310625 
L 236.390834 29.098304 
L 233.93587 29.098304 
z
" style="fill:#4169e1;"/>
   </g>
   <g id="patch_70">
    <path clip-path="url(#p05e7821de3)" d="M 236.390834 92.310625 
L 238.845797 92.310625 
L 238.845797 51.499863 
L 236.390834 51.499863 
z
" style="fill:#4169e1;"/>
   </g>
   <g id="patch_71">
    <path clip-path="url(#p05e7821de3)" d="M 238.845797 92.310625 
L 241.300761 92.310625 
L 241.300761 71.239851 
L 238.845797 71.239851 
z
" style="fill:#4169e1;"/>
   </g>
   <g id="patch_72">
    <path clip-path="url(#p05e7821de3)" d="M 241.300761 92.310625 
L 243.755725 92.310625 
L 243.755725 71.905244 
L 241.300761 71.905244 
z
" style="fill:#4169e1;"/>
   </g>
   <g id="patch_73">
    <path clip-path="url(#p05e7821de3)" d="M 243.755725 92.310625 
L 246.210689 92.310625 
L 246.210689 75.897601 
L 243.755725 75.897601 
z
" style="fill:#4169e1;"/>
   </g>
   <g id="patch_74">
    <path clip-path="url(#p05e7821de3)" d="M 246.210689 92.310625 
L 248.665653 92.310625 
L 248.665653 78.337375 
L 246.210689 78.337375 
z
" style="fill:#4169e1;"/>
   </g>
   <g id="patch_75">
    <path clip-path="url(#p05e7821de3)" d="M 248.665653 92.310625 
L 251.120616 92.310625 
L 251.120616 86.322089 
L 248.665653 86.322089 
z
" style="fill:#4169e1;"/>
   </g>
   <g id="patch_76">
    <path clip-path="url(#p05e7821de3)" d="M 251.120616 92.310625 
L 253.57558 92.310625 
L 253.57558 87.652875 
L 251.120616 87.652875 
z
" style="fill:#4169e1;"/>
   </g>
   <g id="patch_77">
    <path clip-path="url(#p05e7821de3)" d="M 253.57558 92.310625 
L 256.030544 92.310625 
L 256.030544 88.983661 
L 253.57558 88.983661 
z
" style="fill:#4169e1;"/>
   </g>
   <g id="patch_78">
    <path clip-path="url(#p05e7821de3)" d="M 256.030544 92.310625 
L 258.485508 92.310625 
L 258.485508 90.314446 
L 256.030544 90.314446 
z
" style="fill:#4169e1;"/>
   </g>
   <g id="patch_79">
    <path clip-path="url(#p05e7821de3)" d="M 258.485508 92.310625 
L 260.940472 92.310625 
L 260.940472 90.979839 
L 258.485508 90.979839 
z
" style="fill:#4169e1;"/>
   </g>
   <g id="patch_80">
    <path clip-path="url(#p05e7821de3)" d="M 260.940472 92.310625 
L 263.395435 92.310625 
L 263.395435 91.86703 
L 260.940472 91.86703 
z
" style="fill:#4169e1;"/>
   </g>
   <g id="patch_81">
    <path clip-path="url(#p05e7821de3)" d="M 263.395435 92.310625 
L 265.850399 92.310625 
L 265.850399 92.310625 
L 263.395435 92.310625 
z
" style="fill:#4169e1;"/>
   </g>
   <g id="patch_82">
    <path clip-path="url(#p05e7821de3)" d="M 265.850399 92.310625 
L 268.305363 92.310625 
L 268.305363 92.310625 
L 265.850399 92.310625 
z
" style="fill:#4169e1;"/>
   </g>
   <g id="patch_83">
    <path clip-path="url(#p05e7821de3)" d="M 268.305363 92.310625 
L 270.760327 92.310625 
L 270.760327 92.088827 
L 268.305363 92.088827 
z
" style="fill:#4169e1;"/>
   </g>
   <g id="patch_84">
    <path clip-path="url(#p05e7821de3)" d="M 270.760327 92.310625 
L 273.21529 92.310625 
L 273.21529 92.310625 
L 270.760327 92.310625 
z
" style="fill:#4169e1;"/>
   </g>
   <g id="patch_85">
    <path clip-path="url(#p05e7821de3)" d="M 273.21529 92.310625 
L 275.670254 92.310625 
L 275.670254 92.310625 
L 273.21529 92.310625 
z
" style="fill:#4169e1;"/>
   </g>
   <g id="matplotlib.axis_3">
    <g id="xtick_4">
     <g id="line2d_9">
      <g>
       <use style="stroke:#000000;stroke-width:0.8;" x="179.926667" xlink:href="#ma8d7a9cad5" y="92.310625"/>
      </g>
     </g>
     <g id="text_11">
      <!-- $\mathdefault{10^{2}}$ -->
      <g transform="translate(172.076667 109.623125)scale(0.1 -0.1)">
       <use transform="translate(0 0.99375)" xlink:href="#ArialMT-49"/>
       <use transform="translate(55.615234 0.99375)" xlink:href="#ArialMT-48"/>
       <use transform="translate(112.972813 70.6875)scale(0.7)" xlink:href="#ArialMT-50"/>
      </g>
     </g>
    </g>
    <g id="xtick_5">
     <g id="line2d_10">
      <g>
       <use style="stroke:#000000;stroke-width:0.8;" x="275.670254" xlink:href="#ma8d7a9cad5" y="92.310625"/>
      </g>
     </g>
     <g id="text_12">
      <!-- $\mathdefault{10^{4}}$ -->
      <g transform="translate(267.820254 109.523125)scale(0.1 -0.1)">
       <use transform="translate(0 0.201563)" xlink:href="#ArialMT-49"/>
       <use transform="translate(55.615234 0.201563)" xlink:href="#ArialMT-48"/>
       <use transform="translate(112.972813 69.895313)scale(0.7)" xlink:href="#ArialMT-52"/>
      </g>
     </g>
    </g>
    <g id="text_13">
     <!-- CDS lengths -->
     <defs>
      <path d="M 7.71875 0 
L 7.71875 71.578125 
L 32.375 71.578125 
Q 40.71875 71.578125 45.125 70.5625 
Q 51.265625 69.140625 55.609375 65.4375 
Q 61.28125 60.640625 64.078125 53.1875 
Q 66.890625 45.75 66.890625 36.1875 
Q 66.890625 28.03125 64.984375 21.734375 
Q 63.09375 15.4375 60.109375 11.296875 
Q 57.125 7.171875 53.578125 4.796875 
Q 50.046875 2.4375 45.046875 1.21875 
Q 40.046875 0 33.546875 0 
z
M 17.1875 8.453125 
L 32.46875 8.453125 
Q 39.546875 8.453125 43.578125 9.765625 
Q 47.609375 11.078125 50 13.484375 
Q 53.375 16.84375 55.25 22.53125 
Q 57.125 28.21875 57.125 36.328125 
Q 57.125 47.5625 53.4375 53.59375 
Q 49.75 59.625 44.484375 61.671875 
Q 40.671875 63.140625 32.234375 63.140625 
L 17.1875 63.140625 
z
" id="ArialMT-68"/>
      <path d="M 4.5 23 
L 13.421875 23.78125 
Q 14.0625 18.40625 16.375 14.96875 
Q 18.703125 11.53125 23.578125 9.40625 
Q 28.46875 7.28125 34.578125 7.28125 
Q 39.984375 7.28125 44.140625 8.890625 
Q 48.296875 10.5 50.3125 13.296875 
Q 52.34375 16.109375 52.34375 19.4375 
Q 52.34375 22.796875 50.390625 25.3125 
Q 48.4375 27.828125 43.953125 29.546875 
Q 41.0625 30.671875 31.203125 33.03125 
Q 21.34375 35.40625 17.390625 37.5 
Q 12.25 40.1875 9.734375 44.15625 
Q 7.234375 48.140625 7.234375 53.078125 
Q 7.234375 58.5 10.296875 63.203125 
Q 13.375 67.921875 19.28125 70.359375 
Q 25.203125 72.796875 32.421875 72.796875 
Q 40.375 72.796875 46.453125 70.234375 
Q 52.546875 67.671875 55.8125 62.6875 
Q 59.078125 57.71875 59.328125 51.421875 
L 50.25 50.734375 
Q 49.515625 57.515625 45.28125 60.984375 
Q 41.0625 64.453125 32.8125 64.453125 
Q 24.21875 64.453125 20.28125 61.296875 
Q 16.359375 58.15625 16.359375 53.71875 
Q 16.359375 49.859375 19.140625 47.359375 
Q 21.875 44.875 33.421875 42.265625 
Q 44.96875 39.65625 49.265625 37.703125 
Q 55.515625 34.8125 58.484375 30.390625 
Q 61.46875 25.984375 61.46875 20.21875 
Q 61.46875 14.5 58.203125 9.4375 
Q 54.9375 4.390625 48.796875 1.578125 
Q 42.671875 -1.21875 35.015625 -1.21875 
Q 25.296875 -1.21875 18.71875 1.609375 
Q 12.15625 4.4375 8.421875 10.125 
Q 4.6875 15.828125 4.5 23 
z
" id="ArialMT-83"/>
     </defs>
     <g transform="translate(199.730492 122.890312)scale(0.1 -0.1)">
      <use xlink:href="#ArialMT-67"/>
      <use x="72.216797" xlink:href="#ArialMT-68"/>
      <use x="144.433594" xlink:href="#ArialMT-83"/>
      <use x="211.132812" xlink:href="#ArialMT-32"/>
      <use x="238.916016" xlink:href="#ArialMT-108"/>
      <use x="261.132812" xlink:href="#ArialMT-101"/>
      <use x="316.748047" xlink:href="#ArialMT-110"/>
      <use x="372.363281" xlink:href="#ArialMT-103"/>
      <use x="427.978516" xlink:href="#ArialMT-116"/>
      <use x="455.761719" xlink:href="#ArialMT-104"/>
      <use x="511.376953" xlink:href="#ArialMT-115"/>
     </g>
    </g>
   </g>
   <g id="matplotlib.axis_4">
    <g id="ytick_5">
     <g id="line2d_11">
      <g>
       <use style="stroke:#000000;stroke-width:0.8;" x="179.926667" xlink:href="#mdec3e5b98d" y="92.310625"/>
      </g>
     </g>
     <g id="text_14">
      <!-- 0 -->
      <g transform="translate(167.365729 95.889531)scale(0.1 -0.1)">
       <use xlink:href="#ArialMT-48"/>
      </g>
     </g>
    </g>
    <g id="ytick_6">
     <g id="line2d_12">
      <g>
       <use style="stroke:#000000;stroke-width:0.8;" x="179.926667" xlink:href="#mdec3e5b98d" y="70.130863"/>
      </g>
     </g>
     <g id="text_15">
      <!-- 100 -->
      <g transform="translate(156.243854 73.709769)scale(0.1 -0.1)">
       <use xlink:href="#ArialMT-49"/>
       <use x="55.615234" xlink:href="#ArialMT-48"/>
       <use x="111.230469" xlink:href="#ArialMT-48"/>
      </g>
     </g>
    </g>
    <g id="ytick_7">
     <g id="line2d_13">
      <g>
       <use style="stroke:#000000;stroke-width:0.8;" x="179.926667" xlink:href="#mdec3e5b98d" y="47.951101"/>
      </g>
     </g>
     <g id="text_16">
      <!-- 200 -->
      <g transform="translate(156.243854 51.530007)scale(0.1 -0.1)">
       <use xlink:href="#ArialMT-50"/>
       <use x="55.615234" xlink:href="#ArialMT-48"/>
       <use x="111.230469" xlink:href="#ArialMT-48"/>
      </g>
     </g>
    </g>
    <g id="ytick_8">
     <g id="line2d_14">
      <g>
       <use style="stroke:#000000;stroke-width:0.8;" x="179.926667" xlink:href="#mdec3e5b98d" y="25.771339"/>
      </g>
     </g>
     <g id="text_17">
      <!-- 300 -->
      <defs>
       <path d="M 4.203125 18.890625 
L 12.984375 20.0625 
Q 14.5 12.59375 18.140625 9.296875 
Q 21.78125 6 27 6 
Q 33.203125 6 37.46875 10.296875 
Q 41.75 14.59375 41.75 20.953125 
Q 41.75 27 37.796875 30.921875 
Q 33.84375 34.859375 27.734375 34.859375 
Q 25.25 34.859375 21.53125 33.890625 
L 22.515625 41.609375 
Q 23.390625 41.5 23.921875 41.5 
Q 29.546875 41.5 34.03125 44.421875 
Q 38.53125 47.359375 38.53125 53.46875 
Q 38.53125 58.296875 35.25 61.46875 
Q 31.984375 64.65625 26.8125 64.65625 
Q 21.6875 64.65625 18.265625 61.421875 
Q 14.84375 58.203125 13.875 51.765625 
L 5.078125 53.328125 
Q 6.6875 62.15625 12.390625 67.015625 
Q 18.109375 71.875 26.609375 71.875 
Q 32.46875 71.875 37.390625 69.359375 
Q 42.328125 66.84375 44.9375 62.5 
Q 47.5625 58.15625 47.5625 53.265625 
Q 47.5625 48.640625 45.0625 44.828125 
Q 42.578125 41.015625 37.703125 38.765625 
Q 44.046875 37.3125 47.5625 32.6875 
Q 51.078125 28.078125 51.078125 21.140625 
Q 51.078125 11.765625 44.234375 5.25 
Q 37.40625 -1.265625 26.953125 -1.265625 
Q 17.53125 -1.265625 11.296875 4.34375 
Q 5.078125 9.96875 4.203125 18.890625 
z
" id="ArialMT-51"/>
      </defs>
      <g transform="translate(156.243854 29.350246)scale(0.1 -0.1)">
       <use xlink:href="#ArialMT-51"/>
       <use x="55.615234" xlink:href="#ArialMT-48"/>
       <use x="111.230469" xlink:href="#ArialMT-48"/>
      </g>
     </g>
    </g>
   </g>
   <g id="patch_86">
    <path d="M 179.926667 92.310625 
L 179.926667 10.8 
" style="fill:none;stroke:#000000;stroke-linecap:square;stroke-linejoin:miter;stroke-width:0.8;"/>
   </g>
   <g id="patch_87">
    <path d="M 275.670254 92.310625 
L 275.670254 10.8 
" style="fill:none;stroke:#000000;stroke-linecap:square;stroke-linejoin:miter;stroke-width:0.8;"/>
   </g>
   <g id="patch_88">
    <path d="M 179.926667 92.310625 
L 275.670254 92.310625 
" style="fill:none;stroke:#000000;stroke-linecap:square;stroke-linejoin:miter;stroke-width:0.8;"/>
   </g>
   <g id="patch_89">
    <path d="M 179.926667 10.8 
L 275.670254 10.8 
" style="fill:none;stroke:#000000;stroke-linecap:square;stroke-linejoin:miter;stroke-width:0.8;"/>
   </g>
  </g>
  <g id="axes_3">
   <g id="patch_90">
    <path d="M 317.803333 92.310625 
L 413.546921 92.310625 
L 413.546921 10.8 
L 317.803333 10.8 
z
" style="fill:#ffffff;"/>
   </g>
   <g id="patch_91">
    <path clip-path="url(#pe5fd011a94)" d="M 317.803333 92.310625 
L 320.258297 92.310625 
L 320.258297 92.310625 
L 317.803333 92.310625 
z
" style="fill:#4169e1;"/>
   </g>
   <g id="patch_92">
    <path clip-path="url(#pe5fd011a94)" d="M 320.258297 92.310625 
L 322.713261 92.310625 
L 322.713261 92.310625 
L 320.258297 92.310625 
z
" style="fill:#4169e1;"/>
   </g>
   <g id="patch_93">
    <path clip-path="url(#pe5fd011a94)" d="M 322.713261 92.310625 
L 325.168225 92.310625 
L 325.168225 92.310625 
L 322.713261 92.310625 
z
" style="fill:#4169e1;"/>
   </g>
   <g id="patch_94">
    <path clip-path="url(#pe5fd011a94)" d="M 325.168225 92.310625 
L 327.623188 92.310625 
L 327.623188 92.310625 
L 325.168225 92.310625 
z
" style="fill:#4169e1;"/>
   </g>
   <g id="patch_95">
    <path clip-path="url(#pe5fd011a94)" d="M 327.623188 92.310625 
L 330.078152 92.310625 
L 330.078152 92.310625 
L 327.623188 92.310625 
z
" style="fill:#4169e1;"/>
   </g>
   <g id="patch_96">
    <path clip-path="url(#pe5fd011a94)" d="M 330.078152 92.310625 
L 332.533116 92.310625 
L 332.533116 90.972191 
L 330.078152 90.972191 
z
" style="fill:#4169e1;"/>
   </g>
   <g id="patch_97">
    <path clip-path="url(#pe5fd011a94)" d="M 332.533116 92.310625 
L 334.98808 92.310625 
L 334.98808 92.310625 
L 332.533116 92.310625 
z
" style="fill:#4169e1;"/>
   </g>
   <g id="patch_98">
    <path clip-path="url(#pe5fd011a94)" d="M 334.98808 92.310625 
L 337.443044 92.310625 
L 337.443044 92.310625 
L 334.98808 92.310625 
z
" style="fill:#4169e1;"/>
   </g>
   <g id="patch_99">
    <path clip-path="url(#pe5fd011a94)" d="M 337.443044 92.310625 
L 339.898007 92.310625 
L 339.898007 91.641408 
L 337.443044 91.641408 
z
" style="fill:#4169e1;"/>
   </g>
   <g id="patch_100">
    <path clip-path="url(#pe5fd011a94)" d="M 339.898007 92.310625 
L 342.352971 92.310625 
L 342.352971 92.310625 
L 339.898007 92.310625 
z
" style="fill:#4169e1;"/>
   </g>
   <g id="patch_101">
    <path clip-path="url(#pe5fd011a94)" d="M 342.352971 92.310625 
L 344.807935 92.310625 
L 344.807935 91.641408 
L 342.352971 91.641408 
z
" style="fill:#4169e1;"/>
   </g>
   <g id="patch_102">
    <path clip-path="url(#pe5fd011a94)" d="M 344.807935 92.310625 
L 347.262899 92.310625 
L 347.262899 88.295323 
L 344.807935 88.295323 
z
" style="fill:#4169e1;"/>
   </g>
   <g id="patch_103">
    <path clip-path="url(#pe5fd011a94)" d="M 347.262899 92.310625 
L 349.717863 92.310625 
L 349.717863 89.633757 
L 347.262899 89.633757 
z
" style="fill:#4169e1;"/>
   </g>
   <g id="patch_104">
    <path clip-path="url(#pe5fd011a94)" d="M 349.717863 92.310625 
L 352.172826 92.310625 
L 352.172826 83.610805 
L 349.717863 83.610805 
z
" style="fill:#4169e1;"/>
   </g>
   <g id="patch_105">
    <path clip-path="url(#pe5fd011a94)" d="M 352.172826 92.310625 
L 354.62779 92.310625 
L 354.62779 47.473089 
L 352.172826 47.473089 
z
" style="fill:#4169e1;"/>
   </g>
   <g id="patch_106">
    <path clip-path="url(#pe5fd011a94)" d="M 354.62779 92.310625 
L 357.082754 92.310625 
L 357.082754 14.681458 
L 354.62779 14.681458 
z
" style="fill:#4169e1;"/>
   </g>
   <g id="patch_107">
    <path clip-path="url(#pe5fd011a94)" d="M 357.082754 92.310625 
L 359.537718 92.310625 
L 359.537718 17.358326 
L 357.082754 17.358326 
z
" style="fill:#4169e1;"/>
   </g>
   <g id="patch_108">
    <path clip-path="url(#pe5fd011a94)" d="M 359.537718 92.310625 
L 361.992681 92.310625 
L 361.992681 38.104052 
L 359.537718 38.104052 
z
" style="fill:#4169e1;"/>
   </g>
   <g id="patch_109">
    <path clip-path="url(#pe5fd011a94)" d="M 361.992681 92.310625 
L 364.447645 92.310625 
L 364.447645 66.880381 
L 361.992681 66.880381 
z
" style="fill:#4169e1;"/>
   </g>
   <g id="patch_110">
    <path clip-path="url(#pe5fd011a94)" d="M 364.447645 92.310625 
L 366.902609 92.310625 
L 366.902609 64.87273 
L 364.447645 64.87273 
z
" style="fill:#4169e1;"/>
   </g>
   <g id="patch_111">
    <path clip-path="url(#pe5fd011a94)" d="M 366.902609 92.310625 
L 369.357573 92.310625 
L 369.357573 83.610805 
L 366.902609 83.610805 
z
" style="fill:#4169e1;"/>
   </g>
   <g id="patch_112">
    <path clip-path="url(#pe5fd011a94)" d="M 369.357573 92.310625 
L 371.812537 92.310625 
L 371.812537 77.587852 
L 369.357573 77.587852 
z
" style="fill:#4169e1;"/>
   </g>
   <g id="patch_113">
    <path clip-path="url(#pe5fd011a94)" d="M 371.812537 92.310625 
L 374.2675 92.310625 
L 374.2675 73.57255 
L 371.812537 73.57255 
z
" style="fill:#4169e1;"/>
   </g>
   <g id="patch_114">
    <path clip-path="url(#pe5fd011a94)" d="M 374.2675 92.310625 
L 376.722464 92.310625 
L 376.722464 82.272371 
L 374.2675 82.272371 
z
" style="fill:#4169e1;"/>
   </g>
   <g id="patch_115">
    <path clip-path="url(#pe5fd011a94)" d="M 376.722464 92.310625 
L 379.177428 92.310625 
L 379.177428 89.633757 
L 376.722464 89.633757 
z
" style="fill:#4169e1;"/>
   </g>
   <g id="patch_116">
    <path clip-path="url(#pe5fd011a94)" d="M 379.177428 92.310625 
L 381.632392 92.310625 
L 381.632392 90.972191 
L 379.177428 90.972191 
z
" style="fill:#4169e1;"/>
   </g>
   <g id="patch_117">
    <path clip-path="url(#pe5fd011a94)" d="M 381.632392 92.310625 
L 384.087355 92.310625 
L 384.087355 90.972191 
L 381.632392 90.972191 
z
" style="fill:#4169e1;"/>
   </g>
   <g id="patch_118">
    <path clip-path="url(#pe5fd011a94)" d="M 384.087355 92.310625 
L 386.542319 92.310625 
L 386.542319 89.633757 
L 384.087355 89.633757 
z
" style="fill:#4169e1;"/>
   </g>
   <g id="patch_119">
    <path clip-path="url(#pe5fd011a94)" d="M 386.542319 92.310625 
L 388.997283 92.310625 
L 388.997283 92.310625 
L 386.542319 92.310625 
z
" style="fill:#4169e1;"/>
   </g>
   <g id="patch_120">
    <path clip-path="url(#pe5fd011a94)" d="M 388.997283 92.310625 
L 391.452247 92.310625 
L 391.452247 92.310625 
L 388.997283 92.310625 
z
" style="fill:#4169e1;"/>
   </g>
   <g id="patch_121">
    <path clip-path="url(#pe5fd011a94)" d="M 391.452247 92.310625 
L 393.907211 92.310625 
L 393.907211 92.310625 
L 391.452247 92.310625 
z
" style="fill:#4169e1;"/>
   </g>
   <g id="patch_122">
    <path clip-path="url(#pe5fd011a94)" d="M 393.907211 92.310625 
L 396.362174 92.310625 
L 396.362174 92.310625 
L 393.907211 92.310625 
z
" style="fill:#4169e1;"/>
   </g>
   <g id="patch_123">
    <path clip-path="url(#pe5fd011a94)" d="M 396.362174 92.310625 
L 398.817138 92.310625 
L 398.817138 92.310625 
L 396.362174 92.310625 
z
" style="fill:#4169e1;"/>
   </g>
   <g id="patch_124">
    <path clip-path="url(#pe5fd011a94)" d="M 398.817138 92.310625 
L 401.272102 92.310625 
L 401.272102 92.310625 
L 398.817138 92.310625 
z
" style="fill:#4169e1;"/>
   </g>
   <g id="patch_125">
    <path clip-path="url(#pe5fd011a94)" d="M 401.272102 92.310625 
L 403.727066 92.310625 
L 403.727066 92.310625 
L 401.272102 92.310625 
z
" style="fill:#4169e1;"/>
   </g>
   <g id="patch_126">
    <path clip-path="url(#pe5fd011a94)" d="M 403.727066 92.310625 
L 406.18203 92.310625 
L 406.18203 92.310625 
L 403.727066 92.310625 
z
" style="fill:#4169e1;"/>
   </g>
   <g id="patch_127">
    <path clip-path="url(#pe5fd011a94)" d="M 406.18203 92.310625 
L 408.636993 92.310625 
L 408.636993 92.310625 
L 406.18203 92.310625 
z
" style="fill:#4169e1;"/>
   </g>
   <g id="patch_128">
    <path clip-path="url(#pe5fd011a94)" d="M 408.636993 92.310625 
L 411.091957 92.310625 
L 411.091957 92.310625 
L 408.636993 92.310625 
z
" style="fill:#4169e1;"/>
   </g>
   <g id="patch_129">
    <path clip-path="url(#pe5fd011a94)" d="M 411.091957 92.310625 
L 413.546921 92.310625 
L 413.546921 92.310625 
L 411.091957 92.310625 
z
" style="fill:#4169e1;"/>
   </g>
   <g id="matplotlib.axis_5">
    <g id="xtick_6">
     <g id="line2d_15">
      <g>
       <use style="stroke:#000000;stroke-width:0.8;" x="317.803333" xlink:href="#ma8d7a9cad5" y="92.310625"/>
      </g>
     </g>
     <g id="text_18">
      <!-- $\mathdefault{10^{0}}$ -->
      <g transform="translate(309.953333 109.623125)scale(0.1 -0.1)">
       <use transform="translate(0 0.99375)" xlink:href="#ArialMT-49"/>
       <use transform="translate(55.615234 0.99375)" xlink:href="#ArialMT-48"/>
       <use transform="translate(112.972813 70.6875)scale(0.7)" xlink:href="#ArialMT-48"/>
      </g>
     </g>
    </g>
    <g id="xtick_7">
     <g id="line2d_16">
      <g>
       <use style="stroke:#000000;stroke-width:0.8;" x="365.675127" xlink:href="#ma8d7a9cad5" y="92.310625"/>
      </g>
     </g>
     <g id="text_19">
      <!-- $\mathdefault{10^{2}}$ -->
      <g transform="translate(357.825127 109.623125)scale(0.1 -0.1)">
       <use transform="translate(0 0.99375)" xlink:href="#ArialMT-49"/>
       <use transform="translate(55.615234 0.99375)" xlink:href="#ArialMT-48"/>
       <use transform="translate(112.972813 70.6875)scale(0.7)" xlink:href="#ArialMT-50"/>
      </g>
     </g>
    </g>
    <g id="xtick_8">
     <g id="line2d_17">
      <g>
       <use style="stroke:#000000;stroke-width:0.8;" x="413.546921" xlink:href="#ma8d7a9cad5" y="92.310625"/>
      </g>
     </g>
     <g id="text_20">
      <!-- $\mathdefault{10^{4}}$ -->
      <g transform="translate(405.696921 109.523125)scale(0.1 -0.1)">
       <use transform="translate(0 0.201563)" xlink:href="#ArialMT-49"/>
       <use transform="translate(55.615234 0.201563)" xlink:href="#ArialMT-48"/>
       <use transform="translate(112.972813 69.895313)scale(0.7)" xlink:href="#ArialMT-52"/>
      </g>
     </g>
    </g>
    <g id="text_21">
     <!-- 3UTR lengths -->
     <g transform="translate(335.10794 122.798125)scale(0.1 -0.1)">
      <use xlink:href="#ArialMT-51"/>
      <use x="55.615234" xlink:href="#ArialMT-85"/>
      <use x="127.832031" xlink:href="#ArialMT-84"/>
      <use x="188.916016" xlink:href="#ArialMT-82"/>
      <use x="261.132812" xlink:href="#ArialMT-32"/>
      <use x="288.916016" xlink:href="#ArialMT-108"/>
      <use x="311.132812" xlink:href="#ArialMT-101"/>
      <use x="366.748047" xlink:href="#ArialMT-110"/>
      <use x="422.363281" xlink:href="#ArialMT-103"/>
      <use x="477.978516" xlink:href="#ArialMT-116"/>
      <use x="505.761719" xlink:href="#ArialMT-104"/>
      <use x="561.376953" xlink:href="#ArialMT-115"/>
     </g>
    </g>
   </g>
   <g id="matplotlib.axis_6">
    <g id="ytick_9">
     <g id="line2d_18">
      <g>
       <use style="stroke:#000000;stroke-width:0.8;" x="317.803333" xlink:href="#mdec3e5b98d" y="92.310625"/>
      </g>
     </g>
     <g id="text_22">
      <!-- 0 -->
      <g transform="translate(305.242396 95.889531)scale(0.1 -0.1)">
       <use xlink:href="#ArialMT-48"/>
      </g>
     </g>
    </g>
    <g id="ytick_10">
     <g id="line2d_19">
      <g>
       <use style="stroke:#000000;stroke-width:0.8;" x="317.803333" xlink:href="#mdec3e5b98d" y="58.849777"/>
      </g>
     </g>
     <g id="text_23">
      <!-- 50 -->
      <g transform="translate(299.681458 62.428684)scale(0.1 -0.1)">
       <use xlink:href="#ArialMT-53"/>
       <use x="55.615234" xlink:href="#ArialMT-48"/>
      </g>
     </g>
    </g>
    <g id="ytick_11">
     <g id="line2d_20">
      <g>
       <use style="stroke:#000000;stroke-width:0.8;" x="317.803333" xlink:href="#mdec3e5b98d" y="25.38893"/>
      </g>
     </g>
     <g id="text_24">
      <!-- 100 -->
      <g transform="translate(294.120521 28.967836)scale(0.1 -0.1)">
       <use xlink:href="#ArialMT-49"/>
       <use x="55.615234" xlink:href="#ArialMT-48"/>
       <use x="111.230469" xlink:href="#ArialMT-48"/>
      </g>
     </g>
    </g>
   </g>
   <g id="line2d_21">
    <path clip-path="url(#pe5fd011a94)" d="M 378.697884 92.310625 
L 378.697884 10.8 
" style="fill:none;stroke:#ff0000;stroke-linecap:square;stroke-width:1.5;"/>
   </g>
   <g id="patch_130">
    <path d="M 317.803333 92.310625 
L 317.803333 10.8 
" style="fill:none;stroke:#000000;stroke-linecap:square;stroke-linejoin:miter;stroke-width:0.8;"/>
   </g>
   <g id="patch_131">
    <path d="M 413.546921 92.310625 
L 413.546921 10.8 
" style="fill:none;stroke:#000000;stroke-linecap:square;stroke-linejoin:miter;stroke-width:0.8;"/>
   </g>
   <g id="patch_132">
    <path d="M 317.803333 92.310625 
L 413.546921 92.310625 
" style="fill:none;stroke:#000000;stroke-linecap:square;stroke-linejoin:miter;stroke-width:0.8;"/>
   </g>
   <g id="patch_133">
    <path d="M 317.803333 10.8 
L 413.546921 10.8 
" style="fill:none;stroke:#000000;stroke-linecap:square;stroke-linejoin:miter;stroke-width:0.8;"/>
   </g>
   <g id="text_25">
    <!-- 98.6% -->
    <defs>
     <path d="M 17.671875 38.8125 
Q 12.203125 40.828125 9.5625 44.53125 
Q 6.9375 48.25 6.9375 53.421875 
Q 6.9375 61.234375 12.546875 66.546875 
Q 18.171875 71.875 27.484375 71.875 
Q 36.859375 71.875 42.578125 66.421875 
Q 48.296875 60.984375 48.296875 53.171875 
Q 48.296875 48.1875 45.671875 44.5 
Q 43.0625 40.828125 37.75 38.8125 
Q 44.34375 36.671875 47.78125 31.875 
Q 51.21875 27.09375 51.21875 20.453125 
Q 51.21875 11.28125 44.71875 5.03125 
Q 38.234375 -1.21875 27.640625 -1.21875 
Q 17.046875 -1.21875 10.546875 5.046875 
Q 4.046875 11.328125 4.046875 20.703125 
Q 4.046875 27.6875 7.59375 32.390625 
Q 11.140625 37.109375 17.671875 38.8125 
z
M 15.921875 53.71875 
Q 15.921875 48.640625 19.1875 45.40625 
Q 22.46875 42.1875 27.6875 42.1875 
Q 32.765625 42.1875 36.015625 45.375 
Q 39.265625 48.578125 39.265625 53.21875 
Q 39.265625 58.0625 35.90625 61.359375 
Q 32.5625 64.65625 27.59375 64.65625 
Q 22.5625 64.65625 19.234375 61.421875 
Q 15.921875 58.203125 15.921875 53.71875 
z
M 13.09375 20.65625 
Q 13.09375 16.890625 14.875 13.375 
Q 16.65625 9.859375 20.171875 7.921875 
Q 23.6875 6 27.734375 6 
Q 34.03125 6 38.125 10.046875 
Q 42.234375 14.109375 42.234375 20.359375 
Q 42.234375 26.703125 38.015625 30.859375 
Q 33.796875 35.015625 27.4375 35.015625 
Q 21.234375 35.015625 17.15625 30.90625 
Q 13.09375 26.8125 13.09375 20.65625 
z
" id="ArialMT-56"/>
    </defs>
    <g style="fill:#ff0000;" transform="translate(322.018236 25.38893)scale(0.1 -0.1)">
     <use xlink:href="#ArialMT-57"/>
     <use x="55.615234" xlink:href="#ArialMT-56"/>
     <use x="111.230469" xlink:href="#ArialMT-46"/>
     <use x="139.013672" xlink:href="#ArialMT-54"/>
     <use x="194.628906" xlink:href="#ArialMT-37"/>
    </g>
   </g>
  </g>
 </g>
 <defs>
  <clipPath id="paf90aa3961">
   <rect height="81.510625" width="95.743588" x="42.05" y="10.8"/>
  </clipPath>
  <clipPath id="p05e7821de3">
   <rect height="81.510625" width="95.743588" x="179.926667" y="10.8"/>
  </clipPath>
  <clipPath id="pe5fd011a94">
   <rect height="81.510625" width="95.743588" x="317.803333" y="10.8"/>
  </clipPath>
 </defs>
</svg>
