<?xml version="1.0" encoding="utf-8" standalone="no"?>
<!DOCTYPE svg PUBLIC "-//W3C//DTD SVG 1.1//EN"
  "http://www.w3.org/Graphics/SVG/1.1/DTD/svg11.dtd">
<!-- Created with matplotlib (https://matplotlib.org/) -->
<svg height="136.8pt" version="1.1" viewBox="0 0 432 136.8" width="432pt" xmlns="http://www.w3.org/2000/svg" xmlns:xlink="http://www.w3.org/1999/xlink">
 <defs>
  <style type="text/css">
*{stroke-linecap:butt;stroke-linejoin:round;}
  </style>
 </defs>
 <g id="figure_1">
  <g id="patch_1">
   <path d="M 0 136.8 
L 432 136.8 
L 432 0 
L 0 0 
z
" style="fill:#ffffff;"/>
  </g>
  <g id="axes_1">
   <g id="patch_2">
    <path d="M 44.6 94.72 
L 136.857424 94.72 
L 136.857424 10.8 
L 44.6 10.8 
z
" style="fill:#ffffff;"/>
   </g>
   <g id="patch_3">
    <path clip-path="url(#pb8857dff25)" d="M 44.6 94.72 
L 46.965575 94.72 
L 46.965575 88.755537 
L 44.6 88.755537 
z
"/>
   </g>
   <g id="patch_4">
    <path clip-path="url(#pb8857dff25)" d="M 46.965575 94.72 
L 49.33115 94.72 
L 49.33115 94.72 
L 46.965575 94.72 
z
"/>
   </g>
   <g id="patch_5">
    <path clip-path="url(#pb8857dff25)" d="M 49.33115 94.72 
L 51.696725 94.72 
L 51.696725 91.141322 
L 49.33115 91.141322 
z
"/>
   </g>
   <g id="patch_6">
    <path clip-path="url(#pb8857dff25)" d="M 51.696725 94.72 
L 54.0623 94.72 
L 54.0623 94.72 
L 51.696725 94.72 
z
"/>
   </g>
   <g id="patch_7">
    <path clip-path="url(#pb8857dff25)" d="M 54.0623 94.72 
L 56.427875 94.72 
L 56.427875 92.334215 
L 54.0623 92.334215 
z
"/>
   </g>
   <g id="patch_8">
    <path clip-path="url(#pb8857dff25)" d="M 56.427875 94.72 
L 58.79345 94.72 
L 58.79345 94.72 
L 56.427875 94.72 
z
"/>
   </g>
   <g id="patch_9">
    <path clip-path="url(#pb8857dff25)" d="M 58.79345 94.72 
L 61.159025 94.72 
L 61.159025 93.527107 
L 58.79345 93.527107 
z
"/>
   </g>
   <g id="patch_10">
    <path clip-path="url(#pb8857dff25)" d="M 61.159025 94.72 
L 63.5246 94.72 
L 63.5246 92.334215 
L 61.159025 92.334215 
z
"/>
   </g>
   <g id="patch_11">
    <path clip-path="url(#pb8857dff25)" d="M 63.5246 94.72 
L 65.890175 94.72 
L 65.890175 87.562644 
L 63.5246 87.562644 
z
"/>
   </g>
   <g id="patch_12">
    <path clip-path="url(#pb8857dff25)" d="M 65.890175 94.72 
L 68.25575 94.72 
L 68.25575 85.176859 
L 65.890175 85.176859 
z
"/>
   </g>
   <g id="patch_13">
    <path clip-path="url(#pb8857dff25)" d="M 68.25575 94.72 
L 70.621325 94.72 
L 70.621325 92.334215 
L 68.25575 92.334215 
z
"/>
   </g>
   <g id="patch_14">
    <path clip-path="url(#pb8857dff25)" d="M 70.621325 94.72 
L 72.9869 94.72 
L 72.9869 88.755537 
L 70.621325 88.755537 
z
"/>
   </g>
   <g id="patch_15">
    <path clip-path="url(#pb8857dff25)" d="M 72.9869 94.72 
L 75.352475 94.72 
L 75.352475 81.598181 
L 72.9869 81.598181 
z
"/>
   </g>
   <g id="patch_16">
    <path clip-path="url(#pb8857dff25)" d="M 75.352475 94.72 
L 77.71805 94.72 
L 77.71805 29.110903 
L 75.352475 29.110903 
z
"/>
   </g>
   <g id="patch_17">
    <path clip-path="url(#pb8857dff25)" d="M 77.71805 94.72 
L 80.083625 94.72 
L 80.083625 14.79619 
L 77.71805 14.79619 
z
"/>
   </g>
   <g id="patch_18">
    <path clip-path="url(#pb8857dff25)" d="M 80.083625 94.72 
L 82.4492 94.72 
L 82.4492 36.268259 
L 80.083625 36.268259 
z
"/>
   </g>
   <g id="patch_19">
    <path clip-path="url(#pb8857dff25)" d="M 82.4492 94.72 
L 84.814775 94.72 
L 84.814775 41.039829 
L 82.4492 41.039829 
z
"/>
   </g>
   <g id="patch_20">
    <path clip-path="url(#pb8857dff25)" d="M 84.814775 94.72 
L 87.18035 94.72 
L 87.18035 29.110903 
L 84.814775 29.110903 
z
"/>
   </g>
   <g id="patch_21">
    <path clip-path="url(#pb8857dff25)" d="M 87.18035 94.72 
L 89.545925 94.72 
L 89.545925 36.268259 
L 87.18035 36.268259 
z
"/>
   </g>
   <g id="patch_22">
    <path clip-path="url(#pb8857dff25)" d="M 89.545925 94.72 
L 91.9115 94.72 
L 91.9115 25.532225 
L 89.545925 25.532225 
z
"/>
   </g>
   <g id="patch_23">
    <path clip-path="url(#pb8857dff25)" d="M 91.9115 94.72 
L 94.277075 94.72 
L 94.277075 54.161649 
L 91.9115 54.161649 
z
"/>
   </g>
   <g id="patch_24">
    <path clip-path="url(#pb8857dff25)" d="M 94.277075 94.72 
L 96.64265 94.72 
L 96.64265 49.390078 
L 94.277075 49.390078 
z
"/>
   </g>
   <g id="patch_25">
    <path clip-path="url(#pb8857dff25)" d="M 96.64265 94.72 
L 99.008225 94.72 
L 99.008225 67.283468 
L 96.64265 67.283468 
z
"/>
   </g>
   <g id="patch_26">
    <path clip-path="url(#pb8857dff25)" d="M 99.008225 94.72 
L 101.3738 94.72 
L 101.3738 73.247932 
L 99.008225 73.247932 
z
"/>
   </g>
   <g id="patch_27">
    <path clip-path="url(#pb8857dff25)" d="M 101.3738 94.72 
L 103.739375 94.72 
L 103.739375 69.669254 
L 101.3738 69.669254 
z
"/>
   </g>
   <g id="patch_28">
    <path clip-path="url(#pb8857dff25)" d="M 103.739375 94.72 
L 106.10495 94.72 
L 106.10495 85.176859 
L 103.739375 85.176859 
z
"/>
   </g>
   <g id="patch_29">
    <path clip-path="url(#pb8857dff25)" d="M 106.10495 94.72 
L 108.470525 94.72 
L 108.470525 89.948429 
L 106.10495 89.948429 
z
"/>
   </g>
   <g id="patch_30">
    <path clip-path="url(#pb8857dff25)" d="M 108.470525 94.72 
L 110.836099 94.72 
L 110.836099 91.141322 
L 108.470525 91.141322 
z
"/>
   </g>
   <g id="patch_31">
    <path clip-path="url(#pb8857dff25)" d="M 110.836099 94.72 
L 113.201674 94.72 
L 113.201674 94.72 
L 110.836099 94.72 
z
"/>
   </g>
   <g id="patch_32">
    <path clip-path="url(#pb8857dff25)" d="M 113.201674 94.72 
L 115.567249 94.72 
L 115.567249 94.72 
L 113.201674 94.72 
z
"/>
   </g>
   <g id="patch_33">
    <path clip-path="url(#pb8857dff25)" d="M 115.567249 94.72 
L 117.932824 94.72 
L 117.932824 94.72 
L 115.567249 94.72 
z
"/>
   </g>
   <g id="patch_34">
    <path clip-path="url(#pb8857dff25)" d="M 117.932824 94.72 
L 120.298399 94.72 
L 120.298399 94.72 
L 117.932824 94.72 
z
"/>
   </g>
   <g id="patch_35">
    <path clip-path="url(#pb8857dff25)" d="M 120.298399 94.72 
L 122.663974 94.72 
L 122.663974 94.72 
L 120.298399 94.72 
z
"/>
   </g>
   <g id="patch_36">
    <path clip-path="url(#pb8857dff25)" d="M 122.663974 94.72 
L 125.029549 94.72 
L 125.029549 94.72 
L 122.663974 94.72 
z
"/>
   </g>
   <g id="patch_37">
    <path clip-path="url(#pb8857dff25)" d="M 125.029549 94.72 
L 127.395124 94.72 
L 127.395124 94.72 
L 125.029549 94.72 
z
"/>
   </g>
   <g id="patch_38">
    <path clip-path="url(#pb8857dff25)" d="M 127.395124 94.72 
L 129.760699 94.72 
L 129.760699 94.72 
L 127.395124 94.72 
z
"/>
   </g>
   <g id="patch_39">
    <path clip-path="url(#pb8857dff25)" d="M 129.760699 94.72 
L 132.126274 94.72 
L 132.126274 94.72 
L 129.760699 94.72 
z
"/>
   </g>
   <g id="patch_40">
    <path clip-path="url(#pb8857dff25)" d="M 132.126274 94.72 
L 134.491849 94.72 
L 134.491849 94.72 
L 132.126274 94.72 
z
"/>
   </g>
   <g id="patch_41">
    <path clip-path="url(#pb8857dff25)" d="M 134.491849 94.72 
L 136.857424 94.72 
L 136.857424 94.72 
L 134.491849 94.72 
z
"/>
   </g>
   <g id="matplotlib.axis_1">
    <g id="xtick_1">
     <g id="line2d_1">
      <defs>
       <path d="M 0 0 
L 0 3.5 
" id="m264edb86b2" style="stroke:#000000;stroke-width:0.8;"/>
      </defs>
      <g>
       <use style="stroke:#000000;stroke-width:0.8;" x="44.6" xlink:href="#m264edb86b2" y="94.72"/>
      </g>
     </g>
     <g id="text_1">
      <!-- $\mathdefault{10^{0}}$ -->
      <defs>
       <path d="M 12.40625 8.296875 
L 28.515625 8.296875 
L 28.515625 63.921875 
L 10.984375 60.40625 
L 10.984375 69.390625 
L 28.421875 72.90625 
L 38.28125 72.90625 
L 38.28125 8.296875 
L 54.390625 8.296875 
L 54.390625 0 
L 12.40625 0 
z
" id="DejaVuSans-49"/>
       <path d="M 31.78125 66.40625 
Q 24.171875 66.40625 20.328125 58.90625 
Q 16.5 51.421875 16.5 36.375 
Q 16.5 21.390625 20.328125 13.890625 
Q 24.171875 6.390625 31.78125 6.390625 
Q 39.453125 6.390625 43.28125 13.890625 
Q 47.125 21.390625 47.125 36.375 
Q 47.125 51.421875 43.28125 58.90625 
Q 39.453125 66.40625 31.78125 66.40625 
z
M 31.78125 74.21875 
Q 44.046875 74.21875 50.515625 64.515625 
Q 56.984375 54.828125 56.984375 36.375 
Q 56.984375 17.96875 50.515625 8.265625 
Q 44.046875 -1.421875 31.78125 -1.421875 
Q 19.53125 -1.421875 13.0625 8.265625 
Q 6.59375 17.96875 6.59375 36.375 
Q 6.59375 54.828125 13.0625 64.515625 
Q 19.53125 74.21875 31.78125 74.21875 
z
" id="DejaVuSans-48"/>
      </defs>
      <g transform="translate(35.8 109.318437)scale(0.1 -0.1)">
       <use transform="translate(0 0.765625)" xlink:href="#DejaVuSans-49"/>
       <use transform="translate(63.623047 0.765625)" xlink:href="#DejaVuSans-48"/>
       <use transform="translate(128.203125 39.046875)scale(0.7)" xlink:href="#DejaVuSans-48"/>
      </g>
     </g>
    </g>
    <g id="xtick_2">
     <g id="line2d_2">
      <g>
       <use style="stroke:#000000;stroke-width:0.8;" x="90.728712" xlink:href="#m264edb86b2" y="94.72"/>
      </g>
     </g>
     <g id="text_2">
      <!-- $\mathdefault{10^{2}}$ -->
      <defs>
       <path d="M 19.1875 8.296875 
L 53.609375 8.296875 
L 53.609375 0 
L 7.328125 0 
L 7.328125 8.296875 
Q 12.9375 14.109375 22.625 23.890625 
Q 32.328125 33.6875 34.8125 36.53125 
Q 39.546875 41.84375 41.421875 45.53125 
Q 43.3125 49.21875 43.3125 52.78125 
Q 43.3125 58.59375 39.234375 62.25 
Q 35.15625 65.921875 28.609375 65.921875 
Q 23.96875 65.921875 18.8125 64.3125 
Q 13.671875 62.703125 7.8125 59.421875 
L 7.8125 69.390625 
Q 13.765625 71.78125 18.9375 73 
Q 24.125 74.21875 28.421875 74.21875 
Q 39.75 74.21875 46.484375 68.546875 
Q 53.21875 62.890625 53.21875 53.421875 
Q 53.21875 48.921875 51.53125 44.890625 
Q 49.859375 40.875 45.40625 35.40625 
Q 44.1875 33.984375 37.640625 27.21875 
Q 31.109375 20.453125 19.1875 8.296875 
z
" id="DejaVuSans-50"/>
      </defs>
      <g transform="translate(81.928712 109.318437)scale(0.1 -0.1)">
       <use transform="translate(0 0.765625)" xlink:href="#DejaVuSans-49"/>
       <use transform="translate(63.623047 0.765625)" xlink:href="#DejaVuSans-48"/>
       <use transform="translate(128.203125 39.046875)scale(0.7)" xlink:href="#DejaVuSans-50"/>
      </g>
     </g>
    </g>
    <g id="xtick_3">
     <g id="line2d_3">
      <g>
       <use style="stroke:#000000;stroke-width:0.8;" x="136.857424" xlink:href="#m264edb86b2" y="94.72"/>
      </g>
     </g>
     <g id="text_3">
      <!-- $\mathdefault{10^{4}}$ -->
      <defs>
       <path d="M 37.796875 64.3125 
L 12.890625 25.390625 
L 37.796875 25.390625 
z
M 35.203125 72.90625 
L 47.609375 72.90625 
L 47.609375 25.390625 
L 58.015625 25.390625 
L 58.015625 17.1875 
L 47.609375 17.1875 
L 47.609375 0 
L 37.796875 0 
L 37.796875 17.1875 
L 4.890625 17.1875 
L 4.890625 26.703125 
z
" id="DejaVuSans-52"/>
      </defs>
      <g transform="translate(128.057424 109.318437)scale(0.1 -0.1)">
       <use transform="translate(0 0.684375)" xlink:href="#DejaVuSans-49"/>
       <use transform="translate(63.623047 0.684375)" xlink:href="#DejaVuSans-48"/>
       <use transform="translate(128.203125 38.965625)scale(0.7)" xlink:href="#DejaVuSans-52"/>
      </g>
     </g>
    </g>
    <g id="text_4">
     <!-- 5UTR lengths -->
     <defs>
      <path d="M 10.796875 72.90625 
L 49.515625 72.90625 
L 49.515625 64.59375 
L 19.828125 64.59375 
L 19.828125 46.734375 
Q 21.96875 47.46875 24.109375 47.828125 
Q 26.265625 48.1875 28.421875 48.1875 
Q 40.625 48.1875 47.75 41.5 
Q 54.890625 34.8125 54.890625 23.390625 
Q 54.890625 11.625 47.5625 5.09375 
Q 40.234375 -1.421875 26.90625 -1.421875 
Q 22.3125 -1.421875 17.546875 -0.640625 
Q 12.796875 0.140625 7.71875 1.703125 
L 7.71875 11.625 
Q 12.109375 9.234375 16.796875 8.0625 
Q 21.484375 6.890625 26.703125 6.890625 
Q 35.15625 6.890625 40.078125 11.328125 
Q 45.015625 15.765625 45.015625 23.390625 
Q 45.015625 31 40.078125 35.4375 
Q 35.15625 39.890625 26.703125 39.890625 
Q 22.75 39.890625 18.8125 39.015625 
Q 14.890625 38.140625 10.796875 36.28125 
z
" id="DejaVuSans-53"/>
      <path d="M 8.6875 72.90625 
L 18.609375 72.90625 
L 18.609375 28.609375 
Q 18.609375 16.890625 22.84375 11.734375 
Q 27.09375 6.59375 36.625 6.59375 
Q 46.09375 6.59375 50.34375 11.734375 
Q 54.59375 16.890625 54.59375 28.609375 
L 54.59375 72.90625 
L 64.5 72.90625 
L 64.5 27.390625 
Q 64.5 13.140625 57.4375 5.859375 
Q 50.390625 -1.421875 36.625 -1.421875 
Q 22.796875 -1.421875 15.734375 5.859375 
Q 8.6875 13.140625 8.6875 27.390625 
z
" id="DejaVuSans-85"/>
      <path d="M -0.296875 72.90625 
L 61.375 72.90625 
L 61.375 64.59375 
L 35.5 64.59375 
L 35.5 0 
L 25.59375 0 
L 25.59375 64.59375 
L -0.296875 64.59375 
z
" id="DejaVuSans-84"/>
      <path d="M 44.390625 34.1875 
Q 47.5625 33.109375 50.5625 29.59375 
Q 53.5625 26.078125 56.59375 19.921875 
L 66.609375 0 
L 56 0 
L 46.6875 18.703125 
Q 43.0625 26.03125 39.671875 28.421875 
Q 36.28125 30.8125 30.421875 30.8125 
L 19.671875 30.8125 
L 19.671875 0 
L 9.8125 0 
L 9.8125 72.90625 
L 32.078125 72.90625 
Q 44.578125 72.90625 50.734375 67.671875 
Q 56.890625 62.453125 56.890625 51.90625 
Q 56.890625 45.015625 53.6875 40.46875 
Q 50.484375 35.9375 44.390625 34.1875 
z
M 19.671875 64.796875 
L 19.671875 38.921875 
L 32.078125 38.921875 
Q 39.203125 38.921875 42.84375 42.21875 
Q 46.484375 45.515625 46.484375 51.90625 
Q 46.484375 58.296875 42.84375 61.546875 
Q 39.203125 64.796875 32.078125 64.796875 
z
" id="DejaVuSans-82"/>
      <path id="DejaVuSans-32"/>
      <path d="M 9.421875 75.984375 
L 18.40625 75.984375 
L 18.40625 0 
L 9.421875 0 
z
" id="DejaVuSans-108"/>
      <path d="M 56.203125 29.59375 
L 56.203125 25.203125 
L 14.890625 25.203125 
Q 15.484375 15.921875 20.484375 11.0625 
Q 25.484375 6.203125 34.421875 6.203125 
Q 39.59375 6.203125 44.453125 7.46875 
Q 49.3125 8.734375 54.109375 11.28125 
L 54.109375 2.78125 
Q 49.265625 0.734375 44.1875 -0.34375 
Q 39.109375 -1.421875 33.890625 -1.421875 
Q 20.796875 -1.421875 13.15625 6.1875 
Q 5.515625 13.8125 5.515625 26.8125 
Q 5.515625 40.234375 12.765625 48.109375 
Q 20.015625 56 32.328125 56 
Q 43.359375 56 49.78125 48.890625 
Q 56.203125 41.796875 56.203125 29.59375 
z
M 47.21875 32.234375 
Q 47.125 39.59375 43.09375 43.984375 
Q 39.0625 48.390625 32.421875 48.390625 
Q 24.90625 48.390625 20.390625 44.140625 
Q 15.875 39.890625 15.1875 32.171875 
z
" id="DejaVuSans-101"/>
      <path d="M 54.890625 33.015625 
L 54.890625 0 
L 45.90625 0 
L 45.90625 32.71875 
Q 45.90625 40.484375 42.875 44.328125 
Q 39.84375 48.1875 33.796875 48.1875 
Q 26.515625 48.1875 22.3125 43.546875 
Q 18.109375 38.921875 18.109375 30.90625 
L 18.109375 0 
L 9.078125 0 
L 9.078125 54.6875 
L 18.109375 54.6875 
L 18.109375 46.1875 
Q 21.34375 51.125 25.703125 53.5625 
Q 30.078125 56 35.796875 56 
Q 45.21875 56 50.046875 50.171875 
Q 54.890625 44.34375 54.890625 33.015625 
z
" id="DejaVuSans-110"/>
      <path d="M 45.40625 27.984375 
Q 45.40625 37.75 41.375 43.109375 
Q 37.359375 48.484375 30.078125 48.484375 
Q 22.859375 48.484375 18.828125 43.109375 
Q 14.796875 37.75 14.796875 27.984375 
Q 14.796875 18.265625 18.828125 12.890625 
Q 22.859375 7.515625 30.078125 7.515625 
Q 37.359375 7.515625 41.375 12.890625 
Q 45.40625 18.265625 45.40625 27.984375 
z
M 54.390625 6.78125 
Q 54.390625 -7.171875 48.1875 -13.984375 
Q 42 -20.796875 29.203125 -20.796875 
Q 24.46875 -20.796875 20.265625 -20.09375 
Q 16.0625 -19.390625 12.109375 -17.921875 
L 12.109375 -9.1875 
Q 16.0625 -11.328125 19.921875 -12.34375 
Q 23.78125 -13.375 27.78125 -13.375 
Q 36.625 -13.375 41.015625 -8.765625 
Q 45.40625 -4.15625 45.40625 5.171875 
L 45.40625 9.625 
Q 42.625 4.78125 38.28125 2.390625 
Q 33.9375 0 27.875 0 
Q 17.828125 0 11.671875 7.65625 
Q 5.515625 15.328125 5.515625 27.984375 
Q 5.515625 40.671875 11.671875 48.328125 
Q 17.828125 56 27.875 56 
Q 33.9375 56 38.28125 53.609375 
Q 42.625 51.21875 45.40625 46.390625 
L 45.40625 54.6875 
L 54.390625 54.6875 
z
" id="DejaVuSans-103"/>
      <path d="M 18.3125 70.21875 
L 18.3125 54.6875 
L 36.8125 54.6875 
L 36.8125 47.703125 
L 18.3125 47.703125 
L 18.3125 18.015625 
Q 18.3125 11.328125 20.140625 9.421875 
Q 21.96875 7.515625 27.59375 7.515625 
L 36.8125 7.515625 
L 36.8125 0 
L 27.59375 0 
Q 17.1875 0 13.234375 3.875 
Q 9.28125 7.765625 9.28125 18.015625 
L 9.28125 47.703125 
L 2.6875 47.703125 
L 2.6875 54.6875 
L 9.28125 54.6875 
L 9.28125 70.21875 
z
" id="DejaVuSans-116"/>
      <path d="M 54.890625 33.015625 
L 54.890625 0 
L 45.90625 0 
L 45.90625 32.71875 
Q 45.90625 40.484375 42.875 44.328125 
Q 39.84375 48.1875 33.796875 48.1875 
Q 26.515625 48.1875 22.3125 43.546875 
Q 18.109375 38.921875 18.109375 30.90625 
L 18.109375 0 
L 9.078125 0 
L 9.078125 75.984375 
L 18.109375 75.984375 
L 18.109375 46.1875 
Q 21.34375 51.125 25.703125 53.5625 
Q 30.078125 56 35.796875 56 
Q 45.21875 56 50.046875 50.171875 
Q 54.890625 44.34375 54.890625 33.015625 
z
" id="DejaVuSans-104"/>
      <path d="M 44.28125 53.078125 
L 44.28125 44.578125 
Q 40.484375 46.53125 36.375 47.5 
Q 32.28125 48.484375 27.875 48.484375 
Q 21.1875 48.484375 17.84375 46.4375 
Q 14.5 44.390625 14.5 40.28125 
Q 14.5 37.15625 16.890625 35.375 
Q 19.28125 33.59375 26.515625 31.984375 
L 29.59375 31.296875 
Q 39.15625 29.25 43.1875 25.515625 
Q 47.21875 21.78125 47.21875 15.09375 
Q 47.21875 7.46875 41.1875 3.015625 
Q 35.15625 -1.421875 24.609375 -1.421875 
Q 20.21875 -1.421875 15.453125 -0.5625 
Q 10.6875 0.296875 5.421875 2 
L 5.421875 11.28125 
Q 10.40625 8.6875 15.234375 7.390625 
Q 20.0625 6.109375 24.8125 6.109375 
Q 31.15625 6.109375 34.5625 8.28125 
Q 37.984375 10.453125 37.984375 14.40625 
Q 37.984375 18.0625 35.515625 20.015625 
Q 33.0625 21.96875 24.703125 23.78125 
L 21.578125 24.515625 
Q 13.234375 26.265625 9.515625 29.90625 
Q 5.8125 33.546875 5.8125 39.890625 
Q 5.8125 47.609375 11.28125 51.796875 
Q 16.75 56 26.8125 56 
Q 31.78125 56 36.171875 55.265625 
Q 40.578125 54.546875 44.28125 53.078125 
z
" id="DejaVuSans-115"/>
     </defs>
     <g transform="translate(57.228712 122.996562)scale(0.1 -0.1)">
      <use xlink:href="#DejaVuSans-53"/>
      <use x="63.623047" xlink:href="#DejaVuSans-85"/>
      <use x="136.816406" xlink:href="#DejaVuSans-84"/>
      <use x="197.900391" xlink:href="#DejaVuSans-82"/>
      <use x="267.382812" xlink:href="#DejaVuSans-32"/>
      <use x="299.169922" xlink:href="#DejaVuSans-108"/>
      <use x="326.953125" xlink:href="#DejaVuSans-101"/>
      <use x="388.476562" xlink:href="#DejaVuSans-110"/>
      <use x="451.855469" xlink:href="#DejaVuSans-103"/>
      <use x="515.332031" xlink:href="#DejaVuSans-116"/>
      <use x="554.541016" xlink:href="#DejaVuSans-104"/>
      <use x="617.919922" xlink:href="#DejaVuSans-115"/>
     </g>
    </g>
   </g>
   <g id="matplotlib.axis_2">
    <g id="ytick_1">
     <g id="line2d_4">
      <defs>
       <path d="M 0 0 
L -3.5 0 
" id="meaed4fd717" style="stroke:#000000;stroke-width:0.8;"/>
      </defs>
      <g>
       <use style="stroke:#000000;stroke-width:0.8;" x="44.6" xlink:href="#meaed4fd717" y="94.72"/>
      </g>
     </g>
     <g id="text_5">
      <!-- 0 -->
      <g transform="translate(31.2375 98.519219)scale(0.1 -0.1)">
       <use xlink:href="#DejaVuSans-48"/>
      </g>
     </g>
    </g>
    <g id="ytick_2">
     <g id="line2d_5">
      <g>
       <use style="stroke:#000000;stroke-width:0.8;" x="44.6" xlink:href="#meaed4fd717" y="70.862146"/>
      </g>
     </g>
     <g id="text_6">
      <!-- 20 -->
      <g transform="translate(24.875 74.661365)scale(0.1 -0.1)">
       <use xlink:href="#DejaVuSans-50"/>
       <use x="63.623047" xlink:href="#DejaVuSans-48"/>
      </g>
     </g>
    </g>
    <g id="ytick_3">
     <g id="line2d_6">
      <g>
       <use style="stroke:#000000;stroke-width:0.8;" x="44.6" xlink:href="#meaed4fd717" y="47.004293"/>
      </g>
     </g>
     <g id="text_7">
      <!-- 40 -->
      <g transform="translate(24.875 50.803512)scale(0.1 -0.1)">
       <use xlink:href="#DejaVuSans-52"/>
       <use x="63.623047" xlink:href="#DejaVuSans-48"/>
      </g>
     </g>
    </g>
    <g id="ytick_4">
     <g id="line2d_7">
      <g>
       <use style="stroke:#000000;stroke-width:0.8;" x="44.6" xlink:href="#meaed4fd717" y="23.146439"/>
      </g>
     </g>
     <g id="text_8">
      <!-- 60 -->
      <defs>
       <path d="M 33.015625 40.375 
Q 26.375 40.375 22.484375 35.828125 
Q 18.609375 31.296875 18.609375 23.390625 
Q 18.609375 15.53125 22.484375 10.953125 
Q 26.375 6.390625 33.015625 6.390625 
Q 39.65625 6.390625 43.53125 10.953125 
Q 47.40625 15.53125 47.40625 23.390625 
Q 47.40625 31.296875 43.53125 35.828125 
Q 39.65625 40.375 33.015625 40.375 
z
M 52.59375 71.296875 
L 52.59375 62.3125 
Q 48.875 64.0625 45.09375 64.984375 
Q 41.3125 65.921875 37.59375 65.921875 
Q 27.828125 65.921875 22.671875 59.328125 
Q 17.53125 52.734375 16.796875 39.40625 
Q 19.671875 43.65625 24.015625 45.921875 
Q 28.375 48.1875 33.59375 48.1875 
Q 44.578125 48.1875 50.953125 41.515625 
Q 57.328125 34.859375 57.328125 23.390625 
Q 57.328125 12.15625 50.6875 5.359375 
Q 44.046875 -1.421875 33.015625 -1.421875 
Q 20.359375 -1.421875 13.671875 8.265625 
Q 6.984375 17.96875 6.984375 36.375 
Q 6.984375 53.65625 15.1875 63.9375 
Q 23.390625 74.21875 37.203125 74.21875 
Q 40.921875 74.21875 44.703125 73.484375 
Q 48.484375 72.75 52.59375 71.296875 
z
" id="DejaVuSans-54"/>
      </defs>
      <g transform="translate(24.875 26.945658)scale(0.1 -0.1)">
       <use xlink:href="#DejaVuSans-54"/>
       <use x="63.623047" xlink:href="#DejaVuSans-48"/>
      </g>
     </g>
    </g>
    <g id="text_9">
     <!-- Counts -->
     <defs>
      <path d="M 64.40625 67.28125 
L 64.40625 56.890625 
Q 59.421875 61.53125 53.78125 63.8125 
Q 48.140625 66.109375 41.796875 66.109375 
Q 29.296875 66.109375 22.65625 58.46875 
Q 16.015625 50.828125 16.015625 36.375 
Q 16.015625 21.96875 22.65625 14.328125 
Q 29.296875 6.6875 41.796875 6.6875 
Q 48.140625 6.6875 53.78125 8.984375 
Q 59.421875 11.28125 64.40625 15.921875 
L 64.40625 5.609375 
Q 59.234375 2.09375 53.4375 0.328125 
Q 47.65625 -1.421875 41.21875 -1.421875 
Q 24.65625 -1.421875 15.125 8.703125 
Q 5.609375 18.84375 5.609375 36.375 
Q 5.609375 53.953125 15.125 64.078125 
Q 24.65625 74.21875 41.21875 74.21875 
Q 47.75 74.21875 53.53125 72.484375 
Q 59.328125 70.75 64.40625 67.28125 
z
" id="DejaVuSans-67"/>
      <path d="M 30.609375 48.390625 
Q 23.390625 48.390625 19.1875 42.75 
Q 14.984375 37.109375 14.984375 27.296875 
Q 14.984375 17.484375 19.15625 11.84375 
Q 23.34375 6.203125 30.609375 6.203125 
Q 37.796875 6.203125 41.984375 11.859375 
Q 46.1875 17.53125 46.1875 27.296875 
Q 46.1875 37.015625 41.984375 42.703125 
Q 37.796875 48.390625 30.609375 48.390625 
z
M 30.609375 56 
Q 42.328125 56 49.015625 48.375 
Q 55.71875 40.765625 55.71875 27.296875 
Q 55.71875 13.875 49.015625 6.21875 
Q 42.328125 -1.421875 30.609375 -1.421875 
Q 18.84375 -1.421875 12.171875 6.21875 
Q 5.515625 13.875 5.515625 27.296875 
Q 5.515625 40.765625 12.171875 48.375 
Q 18.84375 56 30.609375 56 
z
" id="DejaVuSans-111"/>
      <path d="M 8.5 21.578125 
L 8.5 54.6875 
L 17.484375 54.6875 
L 17.484375 21.921875 
Q 17.484375 14.15625 20.5 10.265625 
Q 23.53125 6.390625 29.59375 6.390625 
Q 36.859375 6.390625 41.078125 11.03125 
Q 45.3125 15.671875 45.3125 23.6875 
L 45.3125 54.6875 
L 54.296875 54.6875 
L 54.296875 0 
L 45.3125 0 
L 45.3125 8.40625 
Q 42.046875 3.421875 37.71875 1 
Q 33.40625 -1.421875 27.6875 -1.421875 
Q 18.265625 -1.421875 13.375 4.4375 
Q 8.5 10.296875 8.5 21.578125 
z
M 31.109375 56 
z
" id="DejaVuSans-117"/>
     </defs>
     <g transform="translate(18.795313 70.213125)rotate(-90)scale(0.1 -0.1)">
      <use xlink:href="#DejaVuSans-67"/>
      <use x="69.824219" xlink:href="#DejaVuSans-111"/>
      <use x="131.005859" xlink:href="#DejaVuSans-117"/>
      <use x="194.384766" xlink:href="#DejaVuSans-110"/>
      <use x="257.763672" xlink:href="#DejaVuSans-116"/>
      <use x="296.972656" xlink:href="#DejaVuSans-115"/>
     </g>
    </g>
   </g>
   <g id="line2d_8">
    <path clip-path="url(#pb8857dff25)" d="M 101.733207 94.72 
L 101.733207 10.8 
" style="fill:none;stroke:#ff0000;stroke-linecap:square;stroke-width:1.5;"/>
   </g>
   <g id="patch_42">
    <path d="M 44.6 94.72 
L 44.6 10.8 
" style="fill:none;stroke:#000000;stroke-linecap:square;stroke-linejoin:miter;stroke-width:0.8;"/>
   </g>
   <g id="patch_43">
    <path d="M 136.857424 94.72 
L 136.857424 10.8 
" style="fill:none;stroke:#000000;stroke-linecap:square;stroke-linejoin:miter;stroke-width:0.8;"/>
   </g>
   <g id="patch_44">
    <path d="M 44.6 94.72 
L 136.857424 94.72 
" style="fill:none;stroke:#000000;stroke-linecap:square;stroke-linejoin:miter;stroke-width:0.8;"/>
   </g>
   <g id="patch_45">
    <path d="M 44.6 10.8 
L 136.857424 10.8 
" style="fill:none;stroke:#000000;stroke-linecap:square;stroke-linejoin:miter;stroke-width:0.8;"/>
   </g>
   <g id="text_10">
    <!-- 95.5% -->
    <defs>
     <path d="M 10.984375 1.515625 
L 10.984375 10.5 
Q 14.703125 8.734375 18.5 7.8125 
Q 22.3125 6.890625 25.984375 6.890625 
Q 35.75 6.890625 40.890625 13.453125 
Q 46.046875 20.015625 46.78125 33.40625 
Q 43.953125 29.203125 39.59375 26.953125 
Q 35.25 24.703125 29.984375 24.703125 
Q 19.046875 24.703125 12.671875 31.3125 
Q 6.296875 37.9375 6.296875 49.421875 
Q 6.296875 60.640625 12.9375 67.421875 
Q 19.578125 74.21875 30.609375 74.21875 
Q 43.265625 74.21875 49.921875 64.515625 
Q 56.59375 54.828125 56.59375 36.375 
Q 56.59375 19.140625 48.40625 8.859375 
Q 40.234375 -1.421875 26.421875 -1.421875 
Q 22.703125 -1.421875 18.890625 -0.6875 
Q 15.09375 0.046875 10.984375 1.515625 
z
M 30.609375 32.421875 
Q 37.25 32.421875 41.125 36.953125 
Q 45.015625 41.5 45.015625 49.421875 
Q 45.015625 57.28125 41.125 61.84375 
Q 37.25 66.40625 30.609375 66.40625 
Q 23.96875 66.40625 20.09375 61.84375 
Q 16.21875 57.28125 16.21875 49.421875 
Q 16.21875 41.5 20.09375 36.953125 
Q 23.96875 32.421875 30.609375 32.421875 
z
" id="DejaVuSans-57"/>
     <path d="M 10.6875 12.40625 
L 21 12.40625 
L 21 0 
L 10.6875 0 
z
" id="DejaVuSans-46"/>
     <path d="M 72.703125 32.078125 
Q 68.453125 32.078125 66.03125 28.46875 
Q 63.625 24.859375 63.625 18.40625 
Q 63.625 12.0625 66.03125 8.421875 
Q 68.453125 4.78125 72.703125 4.78125 
Q 76.859375 4.78125 79.265625 8.421875 
Q 81.6875 12.0625 81.6875 18.40625 
Q 81.6875 24.8125 79.265625 28.4375 
Q 76.859375 32.078125 72.703125 32.078125 
z
M 72.703125 38.28125 
Q 80.421875 38.28125 84.953125 32.90625 
Q 89.5 27.546875 89.5 18.40625 
Q 89.5 9.28125 84.9375 3.921875 
Q 80.375 -1.421875 72.703125 -1.421875 
Q 64.890625 -1.421875 60.34375 3.921875 
Q 55.8125 9.28125 55.8125 18.40625 
Q 55.8125 27.59375 60.375 32.9375 
Q 64.9375 38.28125 72.703125 38.28125 
z
M 22.3125 68.015625 
Q 18.109375 68.015625 15.6875 64.375 
Q 13.28125 60.75 13.28125 54.390625 
Q 13.28125 47.953125 15.671875 44.328125 
Q 18.0625 40.71875 22.3125 40.71875 
Q 26.5625 40.71875 28.96875 44.328125 
Q 31.390625 47.953125 31.390625 54.390625 
Q 31.390625 60.6875 28.953125 64.34375 
Q 26.515625 68.015625 22.3125 68.015625 
z
M 66.40625 74.21875 
L 74.21875 74.21875 
L 28.609375 -1.421875 
L 20.796875 -1.421875 
z
M 22.3125 74.21875 
Q 30.03125 74.21875 34.609375 68.875 
Q 39.203125 63.53125 39.203125 54.390625 
Q 39.203125 45.171875 34.640625 39.84375 
Q 30.078125 34.515625 22.3125 34.515625 
Q 14.546875 34.515625 10.03125 39.859375 
Q 5.515625 45.21875 5.515625 54.390625 
Q 5.515625 63.484375 10.046875 68.84375 
Q 14.59375 74.21875 22.3125 74.21875 
z
" id="DejaVuSans-37"/>
    </defs>
    <g style="fill:#ff0000;" transform="translate(45.554696 23.146439)scale(0.1 -0.1)">
     <use xlink:href="#DejaVuSans-57"/>
     <use x="63.623047" xlink:href="#DejaVuSans-53"/>
     <use x="127.246094" xlink:href="#DejaVuSans-46"/>
     <use x="159.033203" xlink:href="#DejaVuSans-53"/>
     <use x="222.65625" xlink:href="#DejaVuSans-37"/>
    </g>
   </g>
  </g>
  <g id="axes_2">
   <g id="patch_46">
    <path d="M 182.436667 94.72 
L 274.694091 94.72 
L 274.694091 10.8 
L 182.436667 10.8 
z
" style="fill:#ffffff;"/>
   </g>
   <g id="patch_47">
    <path clip-path="url(#p752312839f)" d="M 182.436667 94.72 
L 184.802242 94.72 
L 184.802242 88.326095 
L 182.436667 88.326095 
z
"/>
   </g>
   <g id="patch_48">
    <path clip-path="url(#p752312839f)" d="M 184.802242 94.72 
L 187.167817 94.72 
L 187.167817 89.23951 
L 184.802242 89.23951 
z
"/>
   </g>
   <g id="patch_49">
    <path clip-path="url(#p752312839f)" d="M 187.167817 94.72 
L 189.533392 94.72 
L 189.533392 89.23951 
L 187.167817 89.23951 
z
"/>
   </g>
   <g id="patch_50">
    <path clip-path="url(#p752312839f)" d="M 189.533392 94.72 
L 191.898967 94.72 
L 191.898967 87.41268 
L 189.533392 87.41268 
z
"/>
   </g>
   <g id="patch_51">
    <path clip-path="url(#p752312839f)" d="M 191.898967 94.72 
L 194.264542 94.72 
L 194.264542 84.900789 
L 191.898967 84.900789 
z
"/>
   </g>
   <g id="patch_52">
    <path clip-path="url(#p752312839f)" d="M 194.264542 94.72 
L 196.630117 94.72 
L 196.630117 83.302313 
L 194.264542 83.302313 
z
"/>
   </g>
   <g id="patch_53">
    <path clip-path="url(#p752312839f)" d="M 196.630117 94.72 
L 198.995692 94.72 
L 198.995692 76.451701 
L 196.630117 76.451701 
z
"/>
   </g>
   <g id="patch_54">
    <path clip-path="url(#p752312839f)" d="M 198.995692 94.72 
L 201.361267 94.72 
L 201.361267 76.223347 
L 198.995692 76.223347 
z
"/>
   </g>
   <g id="patch_55">
    <path clip-path="url(#p752312839f)" d="M 201.361267 94.72 
L 203.726842 94.72 
L 203.726842 71.656272 
L 201.361267 71.656272 
z
"/>
   </g>
   <g id="patch_56">
    <path clip-path="url(#p752312839f)" d="M 203.726842 94.72 
L 206.092416 94.72 
L 206.092416 70.057796 
L 203.726842 70.057796 
z
"/>
   </g>
   <g id="patch_57">
    <path clip-path="url(#p752312839f)" d="M 206.092416 94.72 
L 208.457991 94.72 
L 208.457991 60.695293 
L 206.092416 60.695293 
z
"/>
   </g>
   <g id="patch_58">
    <path clip-path="url(#p752312839f)" d="M 208.457991 94.72 
L 210.823566 94.72 
L 210.823566 65.719075 
L 208.457991 65.719075 
z
"/>
   </g>
   <g id="patch_59">
    <path clip-path="url(#p752312839f)" d="M 210.823566 94.72 
L 213.189141 94.72 
L 213.189141 60.695293 
L 210.823566 60.695293 
z
"/>
   </g>
   <g id="patch_60">
    <path clip-path="url(#p752312839f)" d="M 213.189141 94.72 
L 215.554716 94.72 
L 215.554716 50.419374 
L 213.189141 50.419374 
z
"/>
   </g>
   <g id="patch_61">
    <path clip-path="url(#p752312839f)" d="M 215.554716 94.72 
L 217.920291 94.72 
L 217.920291 51.104435 
L 215.554716 51.104435 
z
"/>
   </g>
   <g id="patch_62">
    <path clip-path="url(#p752312839f)" d="M 217.920291 94.72 
L 220.285866 94.72 
L 220.285866 40.828517 
L 217.920291 40.828517 
z
"/>
   </g>
   <g id="patch_63">
    <path clip-path="url(#p752312839f)" d="M 220.285866 94.72 
L 222.651441 94.72 
L 222.651441 30.324245 
L 220.285866 30.324245 
z
"/>
   </g>
   <g id="patch_64">
    <path clip-path="url(#p752312839f)" d="M 222.651441 94.72 
L 225.017016 94.72 
L 225.017016 24.615401 
L 222.651441 24.615401 
z
"/>
   </g>
   <g id="patch_65">
    <path clip-path="url(#p752312839f)" d="M 225.017016 94.72 
L 227.382591 94.72 
L 227.382591 15.024544 
L 225.017016 15.024544 
z
"/>
   </g>
   <g id="patch_66">
    <path clip-path="url(#p752312839f)" d="M 227.382591 94.72 
L 229.748166 94.72 
L 229.748166 14.79619 
L 227.382591 14.79619 
z
"/>
   </g>
   <g id="patch_67">
    <path clip-path="url(#p752312839f)" d="M 229.748166 94.72 
L 232.113741 94.72 
L 232.113741 26.213878 
L 229.748166 26.213878 
z
"/>
   </g>
   <g id="patch_68">
    <path clip-path="url(#p752312839f)" d="M 232.113741 94.72 
L 234.479316 94.72 
L 234.479316 26.442231 
L 232.113741 26.442231 
z
"/>
   </g>
   <g id="patch_69">
    <path clip-path="url(#p752312839f)" d="M 234.479316 94.72 
L 236.844891 94.72 
L 236.844891 29.639184 
L 234.479316 29.639184 
z
"/>
   </g>
   <g id="patch_70">
    <path clip-path="url(#p752312839f)" d="M 236.844891 94.72 
L 239.210466 94.72 
L 239.210466 52.702912 
L 236.844891 52.702912 
z
"/>
   </g>
   <g id="patch_71">
    <path clip-path="url(#p752312839f)" d="M 239.210466 94.72 
L 241.576041 94.72 
L 241.576041 73.026395 
L 239.210466 73.026395 
z
"/>
   </g>
   <g id="patch_72">
    <path clip-path="url(#p752312839f)" d="M 241.576041 94.72 
L 243.941616 94.72 
L 243.941616 73.711456 
L 241.576041 73.711456 
z
"/>
   </g>
   <g id="patch_73">
    <path clip-path="url(#p752312839f)" d="M 243.941616 94.72 
L 246.307191 94.72 
L 246.307191 77.821823 
L 243.941616 77.821823 
z
"/>
   </g>
   <g id="patch_74">
    <path clip-path="url(#p752312839f)" d="M 246.307191 94.72 
L 248.672766 94.72 
L 248.672766 80.333714 
L 246.307191 80.333714 
z
"/>
   </g>
   <g id="patch_75">
    <path clip-path="url(#p752312839f)" d="M 248.672766 94.72 
L 251.038341 94.72 
L 251.038341 88.554449 
L 248.672766 88.554449 
z
"/>
   </g>
   <g id="patch_76">
    <path clip-path="url(#p752312839f)" d="M 251.038341 94.72 
L 253.403916 94.72 
L 253.403916 89.924571 
L 251.038341 89.924571 
z
"/>
   </g>
   <g id="patch_77">
    <path clip-path="url(#p752312839f)" d="M 253.403916 94.72 
L 255.769491 94.72 
L 255.769491 91.294694 
L 253.403916 91.294694 
z
"/>
   </g>
   <g id="patch_78">
    <path clip-path="url(#p752312839f)" d="M 255.769491 94.72 
L 258.135066 94.72 
L 258.135066 92.664816 
L 255.769491 92.664816 
z
"/>
   </g>
   <g id="patch_79">
    <path clip-path="url(#p752312839f)" d="M 258.135066 94.72 
L 260.500641 94.72 
L 260.500641 93.349878 
L 258.135066 93.349878 
z
"/>
   </g>
   <g id="patch_80">
    <path clip-path="url(#p752312839f)" d="M 260.500641 94.72 
L 262.866216 94.72 
L 262.866216 94.263293 
L 260.500641 94.263293 
z
"/>
   </g>
   <g id="patch_81">
    <path clip-path="url(#p752312839f)" d="M 262.866216 94.72 
L 265.231791 94.72 
L 265.231791 94.72 
L 262.866216 94.72 
z
"/>
   </g>
   <g id="patch_82">
    <path clip-path="url(#p752312839f)" d="M 265.231791 94.72 
L 267.597366 94.72 
L 267.597366 94.72 
L 265.231791 94.72 
z
"/>
   </g>
   <g id="patch_83">
    <path clip-path="url(#p752312839f)" d="M 267.597366 94.72 
L 269.962941 94.72 
L 269.962941 94.491646 
L 267.597366 94.491646 
z
"/>
   </g>
   <g id="patch_84">
    <path clip-path="url(#p752312839f)" d="M 269.962941 94.72 
L 272.328516 94.72 
L 272.328516 94.72 
L 269.962941 94.72 
z
"/>
   </g>
   <g id="patch_85">
    <path clip-path="url(#p752312839f)" d="M 272.328516 94.72 
L 274.694091 94.72 
L 274.694091 94.72 
L 272.328516 94.72 
z
"/>
   </g>
   <g id="matplotlib.axis_3">
    <g id="xtick_4">
     <g id="line2d_9">
      <g>
       <use style="stroke:#000000;stroke-width:0.8;" x="182.436667" xlink:href="#m264edb86b2" y="94.72"/>
      </g>
     </g>
     <g id="text_11">
      <!-- $\mathdefault{10^{2}}$ -->
      <g transform="translate(173.636667 109.318437)scale(0.1 -0.1)">
       <use transform="translate(0 0.765625)" xlink:href="#DejaVuSans-49"/>
       <use transform="translate(63.623047 0.765625)" xlink:href="#DejaVuSans-48"/>
       <use transform="translate(128.203125 39.046875)scale(0.7)" xlink:href="#DejaVuSans-50"/>
      </g>
     </g>
    </g>
    <g id="xtick_5">
     <g id="line2d_10">
      <g>
       <use style="stroke:#000000;stroke-width:0.8;" x="274.694091" xlink:href="#m264edb86b2" y="94.72"/>
      </g>
     </g>
     <g id="text_12">
      <!-- $\mathdefault{10^{4}}$ -->
      <g transform="translate(265.894091 109.318437)scale(0.1 -0.1)">
       <use transform="translate(0 0.684375)" xlink:href="#DejaVuSans-49"/>
       <use transform="translate(63.623047 0.684375)" xlink:href="#DejaVuSans-48"/>
       <use transform="translate(128.203125 38.965625)scale(0.7)" xlink:href="#DejaVuSans-52"/>
      </g>
     </g>
    </g>
    <g id="text_13">
     <!-- CDS lengths -->
     <defs>
      <path d="M 19.671875 64.796875 
L 19.671875 8.109375 
L 31.59375 8.109375 
Q 46.6875 8.109375 53.6875 14.9375 
Q 60.6875 21.78125 60.6875 36.53125 
Q 60.6875 51.171875 53.6875 57.984375 
Q 46.6875 64.796875 31.59375 64.796875 
z
M 9.8125 72.90625 
L 30.078125 72.90625 
Q 51.265625 72.90625 61.171875 64.09375 
Q 71.09375 55.28125 71.09375 36.53125 
Q 71.09375 17.671875 61.125 8.828125 
Q 51.171875 0 30.078125 0 
L 9.8125 0 
z
" id="DejaVuSans-68"/>
      <path d="M 53.515625 70.515625 
L 53.515625 60.890625 
Q 47.90625 63.578125 42.921875 64.890625 
Q 37.9375 66.21875 33.296875 66.21875 
Q 25.25 66.21875 20.875 63.09375 
Q 16.5 59.96875 16.5 54.203125 
Q 16.5 49.359375 19.40625 46.890625 
Q 22.3125 44.4375 30.421875 42.921875 
L 36.375 41.703125 
Q 47.40625 39.59375 52.65625 34.296875 
Q 57.90625 29 57.90625 20.125 
Q 57.90625 9.515625 50.796875 4.046875 
Q 43.703125 -1.421875 29.984375 -1.421875 
Q 24.8125 -1.421875 18.96875 -0.25 
Q 13.140625 0.921875 6.890625 3.21875 
L 6.890625 13.375 
Q 12.890625 10.015625 18.65625 8.296875 
Q 24.421875 6.59375 29.984375 6.59375 
Q 38.421875 6.59375 43.015625 9.90625 
Q 47.609375 13.234375 47.609375 19.390625 
Q 47.609375 24.75 44.3125 27.78125 
Q 41.015625 30.8125 33.5 32.328125 
L 27.484375 33.5 
Q 16.453125 35.6875 11.515625 40.375 
Q 6.59375 45.0625 6.59375 53.421875 
Q 6.59375 63.09375 13.40625 68.65625 
Q 20.21875 74.21875 32.171875 74.21875 
Q 37.3125 74.21875 42.625 73.28125 
Q 47.953125 72.359375 53.515625 70.515625 
z
" id="DejaVuSans-83"/>
     </defs>
     <g transform="translate(197.918504 122.996562)scale(0.1 -0.1)">
      <use xlink:href="#DejaVuSans-67"/>
      <use x="69.824219" xlink:href="#DejaVuSans-68"/>
      <use x="146.826172" xlink:href="#DejaVuSans-83"/>
      <use x="210.302734" xlink:href="#DejaVuSans-32"/>
      <use x="242.089844" xlink:href="#DejaVuSans-108"/>
      <use x="269.873047" xlink:href="#DejaVuSans-101"/>
      <use x="331.396484" xlink:href="#DejaVuSans-110"/>
      <use x="394.775391" xlink:href="#DejaVuSans-103"/>
      <use x="458.251953" xlink:href="#DejaVuSans-116"/>
      <use x="497.460938" xlink:href="#DejaVuSans-104"/>
      <use x="560.839844" xlink:href="#DejaVuSans-115"/>
     </g>
    </g>
   </g>
   <g id="matplotlib.axis_4">
    <g id="ytick_5">
     <g id="line2d_11">
      <g>
       <use style="stroke:#000000;stroke-width:0.8;" x="182.436667" xlink:href="#meaed4fd717" y="94.72"/>
      </g>
     </g>
     <g id="text_14">
      <!-- 0 -->
      <g transform="translate(169.074167 98.519219)scale(0.1 -0.1)">
       <use xlink:href="#DejaVuSans-48"/>
      </g>
     </g>
    </g>
    <g id="ytick_6">
     <g id="line2d_12">
      <g>
       <use style="stroke:#000000;stroke-width:0.8;" x="182.436667" xlink:href="#meaed4fd717" y="71.884626"/>
      </g>
     </g>
     <g id="text_15">
      <!-- 100 -->
      <g transform="translate(156.349167 75.683845)scale(0.1 -0.1)">
       <use xlink:href="#DejaVuSans-49"/>
       <use x="63.623047" xlink:href="#DejaVuSans-48"/>
       <use x="127.246094" xlink:href="#DejaVuSans-48"/>
      </g>
     </g>
    </g>
    <g id="ytick_7">
     <g id="line2d_13">
      <g>
       <use style="stroke:#000000;stroke-width:0.8;" x="182.436667" xlink:href="#meaed4fd717" y="49.049252"/>
      </g>
     </g>
     <g id="text_16">
      <!-- 200 -->
      <g transform="translate(156.349167 52.84847)scale(0.1 -0.1)">
       <use xlink:href="#DejaVuSans-50"/>
       <use x="63.623047" xlink:href="#DejaVuSans-48"/>
       <use x="127.246094" xlink:href="#DejaVuSans-48"/>
      </g>
     </g>
    </g>
    <g id="ytick_8">
     <g id="line2d_14">
      <g>
       <use style="stroke:#000000;stroke-width:0.8;" x="182.436667" xlink:href="#meaed4fd717" y="26.213878"/>
      </g>
     </g>
     <g id="text_17">
      <!-- 300 -->
      <defs>
       <path d="M 40.578125 39.3125 
Q 47.65625 37.796875 51.625 33 
Q 55.609375 28.21875 55.609375 21.1875 
Q 55.609375 10.40625 48.1875 4.484375 
Q 40.765625 -1.421875 27.09375 -1.421875 
Q 22.515625 -1.421875 17.65625 -0.515625 
Q 12.796875 0.390625 7.625 2.203125 
L 7.625 11.71875 
Q 11.71875 9.328125 16.59375 8.109375 
Q 21.484375 6.890625 26.8125 6.890625 
Q 36.078125 6.890625 40.9375 10.546875 
Q 45.796875 14.203125 45.796875 21.1875 
Q 45.796875 27.640625 41.28125 31.265625 
Q 36.765625 34.90625 28.71875 34.90625 
L 20.21875 34.90625 
L 20.21875 43.015625 
L 29.109375 43.015625 
Q 36.375 43.015625 40.234375 45.921875 
Q 44.09375 48.828125 44.09375 54.296875 
Q 44.09375 59.90625 40.109375 62.90625 
Q 36.140625 65.921875 28.71875 65.921875 
Q 24.65625 65.921875 20.015625 65.03125 
Q 15.375 64.15625 9.8125 62.3125 
L 9.8125 71.09375 
Q 15.4375 72.65625 20.34375 73.4375 
Q 25.25 74.21875 29.59375 74.21875 
Q 40.828125 74.21875 47.359375 69.109375 
Q 53.90625 64.015625 53.90625 55.328125 
Q 53.90625 49.265625 50.4375 45.09375 
Q 46.96875 40.921875 40.578125 39.3125 
z
" id="DejaVuSans-51"/>
      </defs>
      <g transform="translate(156.349167 30.013096)scale(0.1 -0.1)">
       <use xlink:href="#DejaVuSans-51"/>
       <use x="63.623047" xlink:href="#DejaVuSans-48"/>
       <use x="127.246094" xlink:href="#DejaVuSans-48"/>
      </g>
     </g>
    </g>
   </g>
   <g id="patch_86">
    <path d="M 182.436667 94.72 
L 182.436667 10.8 
" style="fill:none;stroke:#000000;stroke-linecap:square;stroke-linejoin:miter;stroke-width:0.8;"/>
   </g>
   <g id="patch_87">
    <path d="M 274.694091 94.72 
L 274.694091 10.8 
" style="fill:none;stroke:#000000;stroke-linecap:square;stroke-linejoin:miter;stroke-width:0.8;"/>
   </g>
   <g id="patch_88">
    <path d="M 182.436667 94.72 
L 274.694091 94.72 
" style="fill:none;stroke:#000000;stroke-linecap:square;stroke-linejoin:miter;stroke-width:0.8;"/>
   </g>
   <g id="patch_89">
    <path d="M 182.436667 10.8 
L 274.694091 10.8 
" style="fill:none;stroke:#000000;stroke-linecap:square;stroke-linejoin:miter;stroke-width:0.8;"/>
   </g>
  </g>
  <g id="axes_3">
   <g id="patch_90">
    <path d="M 320.273333 94.72 
L 412.530758 94.72 
L 412.530758 10.8 
L 320.273333 10.8 
z
" style="fill:#ffffff;"/>
   </g>
   <g id="patch_91">
    <path clip-path="url(#p8811ece0bb)" d="M 320.273333 94.72 
L 322.638908 94.72 
L 322.638908 94.72 
L 320.273333 94.72 
z
"/>
   </g>
   <g id="patch_92">
    <path clip-path="url(#p8811ece0bb)" d="M 322.638908 94.72 
L 325.004483 94.72 
L 325.004483 94.72 
L 322.638908 94.72 
z
"/>
   </g>
   <g id="patch_93">
    <path clip-path="url(#p8811ece0bb)" d="M 325.004483 94.72 
L 327.370058 94.72 
L 327.370058 94.72 
L 325.004483 94.72 
z
"/>
   </g>
   <g id="patch_94">
    <path clip-path="url(#p8811ece0bb)" d="M 327.370058 94.72 
L 329.735633 94.72 
L 329.735633 94.72 
L 327.370058 94.72 
z
"/>
   </g>
   <g id="patch_95">
    <path clip-path="url(#p8811ece0bb)" d="M 329.735633 94.72 
L 332.101208 94.72 
L 332.101208 94.72 
L 329.735633 94.72 
z
"/>
   </g>
   <g id="patch_96">
    <path clip-path="url(#p8811ece0bb)" d="M 332.101208 94.72 
L 334.466783 94.72 
L 334.466783 93.342003 
L 332.101208 93.342003 
z
"/>
   </g>
   <g id="patch_97">
    <path clip-path="url(#p8811ece0bb)" d="M 334.466783 94.72 
L 336.832358 94.72 
L 336.832358 94.72 
L 334.466783 94.72 
z
"/>
   </g>
   <g id="patch_98">
    <path clip-path="url(#p8811ece0bb)" d="M 336.832358 94.72 
L 339.197933 94.72 
L 339.197933 94.72 
L 336.832358 94.72 
z
"/>
   </g>
   <g id="patch_99">
    <path clip-path="url(#p8811ece0bb)" d="M 339.197933 94.72 
L 341.563508 94.72 
L 341.563508 94.031002 
L 339.197933 94.031002 
z
"/>
   </g>
   <g id="patch_100">
    <path clip-path="url(#p8811ece0bb)" d="M 341.563508 94.72 
L 343.929083 94.72 
L 343.929083 94.72 
L 341.563508 94.72 
z
"/>
   </g>
   <g id="patch_101">
    <path clip-path="url(#p8811ece0bb)" d="M 343.929083 94.72 
L 346.294658 94.72 
L 346.294658 94.031002 
L 343.929083 94.031002 
z
"/>
   </g>
   <g id="patch_102">
    <path clip-path="url(#p8811ece0bb)" d="M 346.294658 94.72 
L 348.660233 94.72 
L 348.660233 90.58601 
L 346.294658 90.58601 
z
"/>
   </g>
   <g id="patch_103">
    <path clip-path="url(#p8811ece0bb)" d="M 348.660233 94.72 
L 351.025808 94.72 
L 351.025808 91.964007 
L 348.660233 91.964007 
z
"/>
   </g>
   <g id="patch_104">
    <path clip-path="url(#p8811ece0bb)" d="M 351.025808 94.72 
L 353.391383 94.72 
L 353.391383 85.763021 
L 351.025808 85.763021 
z
"/>
   </g>
   <g id="patch_105">
    <path clip-path="url(#p8811ece0bb)" d="M 353.391383 94.72 
L 355.756958 94.72 
L 355.756958 48.55711 
L 353.391383 48.55711 
z
"/>
   </g>
   <g id="patch_106">
    <path clip-path="url(#p8811ece0bb)" d="M 355.756958 94.72 
L 358.122533 94.72 
L 358.122533 14.79619 
L 355.756958 14.79619 
z
"/>
   </g>
   <g id="patch_107">
    <path clip-path="url(#p8811ece0bb)" d="M 358.122533 94.72 
L 360.488108 94.72 
L 360.488108 17.552184 
L 358.122533 17.552184 
z
"/>
   </g>
   <g id="patch_108">
    <path clip-path="url(#p8811ece0bb)" d="M 360.488108 94.72 
L 362.853683 94.72 
L 362.853683 38.911133 
L 360.488108 38.911133 
z
"/>
   </g>
   <g id="patch_109">
    <path clip-path="url(#p8811ece0bb)" d="M 362.853683 94.72 
L 365.219258 94.72 
L 365.219258 68.538062 
L 362.853683 68.538062 
z
"/>
   </g>
   <g id="patch_110">
    <path clip-path="url(#p8811ece0bb)" d="M 365.219258 94.72 
L 367.584833 94.72 
L 367.584833 66.471067 
L 365.219258 66.471067 
z
"/>
   </g>
   <g id="patch_111">
    <path clip-path="url(#p8811ece0bb)" d="M 367.584833 94.72 
L 369.950408 94.72 
L 369.950408 85.763021 
L 367.584833 85.763021 
z
"/>
   </g>
   <g id="patch_112">
    <path clip-path="url(#p8811ece0bb)" d="M 369.950408 94.72 
L 372.315983 94.72 
L 372.315983 79.562036 
L 369.950408 79.562036 
z
"/>
   </g>
   <g id="patch_113">
    <path clip-path="url(#p8811ece0bb)" d="M 372.315983 94.72 
L 374.681558 94.72 
L 374.681558 75.428046 
L 372.315983 75.428046 
z
"/>
   </g>
   <g id="patch_114">
    <path clip-path="url(#p8811ece0bb)" d="M 374.681558 94.72 
L 377.047133 94.72 
L 377.047133 84.385025 
L 374.681558 84.385025 
z
"/>
   </g>
   <g id="patch_115">
    <path clip-path="url(#p8811ece0bb)" d="M 377.047133 94.72 
L 379.412708 94.72 
L 379.412708 91.964007 
L 377.047133 91.964007 
z
"/>
   </g>
   <g id="patch_116">
    <path clip-path="url(#p8811ece0bb)" d="M 379.412708 94.72 
L 381.778283 94.72 
L 381.778283 93.342003 
L 379.412708 93.342003 
z
"/>
   </g>
   <g id="patch_117">
    <path clip-path="url(#p8811ece0bb)" d="M 381.778283 94.72 
L 384.143858 94.72 
L 384.143858 93.342003 
L 381.778283 93.342003 
z
"/>
   </g>
   <g id="patch_118">
    <path clip-path="url(#p8811ece0bb)" d="M 384.143858 94.72 
L 386.509433 94.72 
L 386.509433 91.964007 
L 384.143858 91.964007 
z
"/>
   </g>
   <g id="patch_119">
    <path clip-path="url(#p8811ece0bb)" d="M 386.509433 94.72 
L 388.875008 94.72 
L 388.875008 94.72 
L 386.509433 94.72 
z
"/>
   </g>
   <g id="patch_120">
    <path clip-path="url(#p8811ece0bb)" d="M 388.875008 94.72 
L 391.240583 94.72 
L 391.240583 94.72 
L 388.875008 94.72 
z
"/>
   </g>
   <g id="patch_121">
    <path clip-path="url(#p8811ece0bb)" d="M 391.240583 94.72 
L 393.606158 94.72 
L 393.606158 94.72 
L 391.240583 94.72 
z
"/>
   </g>
   <g id="patch_122">
    <path clip-path="url(#p8811ece0bb)" d="M 393.606158 94.72 
L 395.971733 94.72 
L 395.971733 94.72 
L 393.606158 94.72 
z
"/>
   </g>
   <g id="patch_123">
    <path clip-path="url(#p8811ece0bb)" d="M 395.971733 94.72 
L 398.337308 94.72 
L 398.337308 94.72 
L 395.971733 94.72 
z
"/>
   </g>
   <g id="patch_124">
    <path clip-path="url(#p8811ece0bb)" d="M 398.337308 94.72 
L 400.702883 94.72 
L 400.702883 94.72 
L 398.337308 94.72 
z
"/>
   </g>
   <g id="patch_125">
    <path clip-path="url(#p8811ece0bb)" d="M 400.702883 94.72 
L 403.068458 94.72 
L 403.068458 94.72 
L 400.702883 94.72 
z
"/>
   </g>
   <g id="patch_126">
    <path clip-path="url(#p8811ece0bb)" d="M 403.068458 94.72 
L 405.434033 94.72 
L 405.434033 94.72 
L 403.068458 94.72 
z
"/>
   </g>
   <g id="patch_127">
    <path clip-path="url(#p8811ece0bb)" d="M 405.434033 94.72 
L 407.799608 94.72 
L 407.799608 94.72 
L 405.434033 94.72 
z
"/>
   </g>
   <g id="patch_128">
    <path clip-path="url(#p8811ece0bb)" d="M 407.799608 94.72 
L 410.165183 94.72 
L 410.165183 94.72 
L 407.799608 94.72 
z
"/>
   </g>
   <g id="patch_129">
    <path clip-path="url(#p8811ece0bb)" d="M 410.165183 94.72 
L 412.530758 94.72 
L 412.530758 94.72 
L 410.165183 94.72 
z
"/>
   </g>
   <g id="matplotlib.axis_5">
    <g id="xtick_6">
     <g id="line2d_15">
      <g>
       <use style="stroke:#000000;stroke-width:0.8;" x="320.273333" xlink:href="#m264edb86b2" y="94.72"/>
      </g>
     </g>
     <g id="text_18">
      <!-- $\mathdefault{10^{0}}$ -->
      <g transform="translate(311.473333 109.318437)scale(0.1 -0.1)">
       <use transform="translate(0 0.765625)" xlink:href="#DejaVuSans-49"/>
       <use transform="translate(63.623047 0.765625)" xlink:href="#DejaVuSans-48"/>
       <use transform="translate(128.203125 39.046875)scale(0.7)" xlink:href="#DejaVuSans-48"/>
      </g>
     </g>
    </g>
    <g id="xtick_7">
     <g id="line2d_16">
      <g>
       <use style="stroke:#000000;stroke-width:0.8;" x="366.402045" xlink:href="#m264edb86b2" y="94.72"/>
      </g>
     </g>
     <g id="text_19">
      <!-- $\mathdefault{10^{2}}$ -->
      <g transform="translate(357.602045 109.318437)scale(0.1 -0.1)">
       <use transform="translate(0 0.765625)" xlink:href="#DejaVuSans-49"/>
       <use transform="translate(63.623047 0.765625)" xlink:href="#DejaVuSans-48"/>
       <use transform="translate(128.203125 39.046875)scale(0.7)" xlink:href="#DejaVuSans-50"/>
      </g>
     </g>
    </g>
    <g id="xtick_8">
     <g id="line2d_17">
      <g>
       <use style="stroke:#000000;stroke-width:0.8;" x="412.530758" xlink:href="#m264edb86b2" y="94.72"/>
      </g>
     </g>
     <g id="text_20">
      <!-- $\mathdefault{10^{4}}$ -->
      <g transform="translate(403.730758 109.318437)scale(0.1 -0.1)">
       <use transform="translate(0 0.684375)" xlink:href="#DejaVuSans-49"/>
       <use transform="translate(63.623047 0.684375)" xlink:href="#DejaVuSans-48"/>
       <use transform="translate(128.203125 38.965625)scale(0.7)" xlink:href="#DejaVuSans-52"/>
      </g>
     </g>
    </g>
    <g id="text_21">
     <!-- 3UTR lengths -->
     <g transform="translate(332.902045 122.996562)scale(0.1 -0.1)">
      <use xlink:href="#DejaVuSans-51"/>
      <use x="63.623047" xlink:href="#DejaVuSans-85"/>
      <use x="136.816406" xlink:href="#DejaVuSans-84"/>
      <use x="197.900391" xlink:href="#DejaVuSans-82"/>
      <use x="267.382812" xlink:href="#DejaVuSans-32"/>
      <use x="299.169922" xlink:href="#DejaVuSans-108"/>
      <use x="326.953125" xlink:href="#DejaVuSans-101"/>
      <use x="388.476562" xlink:href="#DejaVuSans-110"/>
      <use x="451.855469" xlink:href="#DejaVuSans-103"/>
      <use x="515.332031" xlink:href="#DejaVuSans-116"/>
      <use x="554.541016" xlink:href="#DejaVuSans-104"/>
      <use x="617.919922" xlink:href="#DejaVuSans-115"/>
     </g>
    </g>
   </g>
   <g id="matplotlib.axis_6">
    <g id="ytick_9">
     <g id="line2d_18">
      <g>
       <use style="stroke:#000000;stroke-width:0.8;" x="320.273333" xlink:href="#meaed4fd717" y="94.72"/>
      </g>
     </g>
     <g id="text_22">
      <!-- 0 -->
      <g transform="translate(306.910833 98.519219)scale(0.1 -0.1)">
       <use xlink:href="#DejaVuSans-48"/>
      </g>
     </g>
    </g>
    <g id="ytick_10">
     <g id="line2d_19">
      <g>
       <use style="stroke:#000000;stroke-width:0.8;" x="320.273333" xlink:href="#meaed4fd717" y="60.270082"/>
      </g>
     </g>
     <g id="text_23">
      <!-- 50 -->
      <g transform="translate(300.548333 64.069301)scale(0.1 -0.1)">
       <use xlink:href="#DejaVuSans-53"/>
       <use x="63.623047" xlink:href="#DejaVuSans-48"/>
      </g>
     </g>
    </g>
    <g id="ytick_11">
     <g id="line2d_20">
      <g>
       <use style="stroke:#000000;stroke-width:0.8;" x="320.273333" xlink:href="#meaed4fd717" y="25.820164"/>
      </g>
     </g>
     <g id="text_24">
      <!-- 100 -->
      <g transform="translate(294.185833 29.619383)scale(0.1 -0.1)">
       <use xlink:href="#DejaVuSans-49"/>
       <use x="63.623047" xlink:href="#DejaVuSans-48"/>
       <use x="127.246094" xlink:href="#DejaVuSans-48"/>
      </g>
     </g>
    </g>
   </g>
   <g id="line2d_21">
    <path clip-path="url(#p8811ece0bb)" d="M 378.950625 94.72 
L 378.950625 10.8 
" style="fill:none;stroke:#ff0000;stroke-linecap:square;stroke-width:1.5;"/>
   </g>
   <g id="patch_130">
    <path d="M 320.273333 94.72 
L 320.273333 10.8 
" style="fill:none;stroke:#000000;stroke-linecap:square;stroke-linejoin:miter;stroke-width:0.8;"/>
   </g>
   <g id="patch_131">
    <path d="M 412.530758 94.72 
L 412.530758 10.8 
" style="fill:none;stroke:#000000;stroke-linecap:square;stroke-linejoin:miter;stroke-width:0.8;"/>
   </g>
   <g id="patch_132">
    <path d="M 320.273333 94.72 
L 412.530758 94.72 
" style="fill:none;stroke:#000000;stroke-linecap:square;stroke-linejoin:miter;stroke-width:0.8;"/>
   </g>
   <g id="patch_133">
    <path d="M 320.273333 10.8 
L 412.530758 10.8 
" style="fill:none;stroke:#000000;stroke-linecap:square;stroke-linejoin:miter;stroke-width:0.8;"/>
   </g>
   <g id="text_25">
    <!-- 98.6% -->
    <defs>
     <path d="M 31.78125 34.625 
Q 24.75 34.625 20.71875 30.859375 
Q 16.703125 27.09375 16.703125 20.515625 
Q 16.703125 13.921875 20.71875 10.15625 
Q 24.75 6.390625 31.78125 6.390625 
Q 38.8125 6.390625 42.859375 10.171875 
Q 46.921875 13.96875 46.921875 20.515625 
Q 46.921875 27.09375 42.890625 30.859375 
Q 38.875 34.625 31.78125 34.625 
z
M 21.921875 38.8125 
Q 15.578125 40.375 12.03125 44.71875 
Q 8.5 49.078125 8.5 55.328125 
Q 8.5 64.0625 14.71875 69.140625 
Q 20.953125 74.21875 31.78125 74.21875 
Q 42.671875 74.21875 48.875 69.140625 
Q 55.078125 64.0625 55.078125 55.328125 
Q 55.078125 49.078125 51.53125 44.71875 
Q 48 40.375 41.703125 38.8125 
Q 48.828125 37.15625 52.796875 32.3125 
Q 56.78125 27.484375 56.78125 20.515625 
Q 56.78125 9.90625 50.3125 4.234375 
Q 43.84375 -1.421875 31.78125 -1.421875 
Q 19.734375 -1.421875 13.25 4.234375 
Q 6.78125 9.90625 6.78125 20.515625 
Q 6.78125 27.484375 10.78125 32.3125 
Q 14.796875 37.15625 21.921875 38.8125 
z
M 18.3125 54.390625 
Q 18.3125 48.734375 21.84375 45.5625 
Q 25.390625 42.390625 31.78125 42.390625 
Q 38.140625 42.390625 41.71875 45.5625 
Q 45.3125 48.734375 45.3125 54.390625 
Q 45.3125 60.0625 41.71875 63.234375 
Q 38.140625 66.40625 31.78125 66.40625 
Q 25.390625 66.40625 21.84375 63.234375 
Q 18.3125 60.0625 18.3125 54.390625 
z
" id="DejaVuSans-56"/>
    </defs>
    <g style="fill:#ff0000;" transform="translate(324.334765 25.820164)scale(0.1 -0.1)">
     <use xlink:href="#DejaVuSans-57"/>
     <use x="63.623047" xlink:href="#DejaVuSans-56"/>
     <use x="127.246094" xlink:href="#DejaVuSans-46"/>
     <use x="159.033203" xlink:href="#DejaVuSans-54"/>
     <use x="222.65625" xlink:href="#DejaVuSans-37"/>
    </g>
   </g>
  </g>
 </g>
 <defs>
  <clipPath id="pb8857dff25">
   <rect height="83.92" width="92.257424" x="44.6" y="10.8"/>
  </clipPath>
  <clipPath id="p752312839f">
   <rect height="83.92" width="92.257424" x="182.436667" y="10.8"/>
  </clipPath>
  <clipPath id="p8811ece0bb">
   <rect height="83.92" width="92.257424" x="320.273333" y="10.8"/>
  </clipPath>
 </defs>
</svg>
